<svg width="854" height="211" viewBox="0 0 854 211" fill="none" xmlns="http://www.w3.org/2000/svg">
<path d="M27.7812 0.00292969H183.215C198.513 0.00292969 210.996 12.4253 210.996 27.7841V183.227C210.996 198.524 198.574 210.999 183.215 210.999H27.7812C12.484 210.999 0 198.586 0 183.227V27.7138C0 12.4253 12.4136 0.00292969 27.7812 0.00292969Z" fill="#5468FF"/>
<path d="M127.486 47.1071V39.8717C127.482 34.8154 123.381 30.7188 118.325 30.7197H96.9702C91.9139 30.7188 87.8133 34.8154 87.8094 39.8717V47.3005C87.8094 48.1269 88.5743 48.7072 89.4095 48.5138C95.4503 46.7696 101.707 45.8876 107.995 45.8939C114.087 45.8939 120.118 46.7203 125.947 48.3204C126.721 48.5138 127.486 47.9423 127.486 47.1071ZM68.9604 56.5756L65.3119 52.9271C63.5951 51.209 61.2658 50.2438 58.837 50.2438C56.4081 50.2438 54.0789 51.209 52.362 52.9271L48.0014 57.2789C46.2797 58.9902 45.3115 61.3175 45.3115 63.7451C45.3115 66.1726 46.2797 68.4999 48.0014 70.2112L51.5884 73.7982C52.1686 74.3696 53.0038 74.2378 53.5137 73.6663C55.63 70.7599 57.9666 68.0206 60.503 65.4726C63.0607 62.9062 65.8246 60.5539 68.767 58.4394C69.407 58.0526 69.4703 57.1558 68.9604 56.5756ZM107.931 79.5478V110.846C107.931 111.742 108.899 112.384 109.725 111.936L137.55 97.5353C138.183 97.2188 138.377 96.4451 138.06 95.8121C132.293 85.6931 121.585 78.783 109.215 78.3346C108.573 78.3346 107.931 78.8445 107.931 79.5478ZM107.931 154.944C84.7307 154.944 65.8816 136.121 65.8816 112.956C65.8816 89.79 84.7307 70.9761 107.931 70.9761C131.141 70.9761 149.983 89.79 149.983 112.956C149.983 136.121 131.204 154.944 107.931 154.944ZM107.931 53.3139C74.9809 53.3139 48.2546 80.005 48.2546 112.956C48.2546 145.915 74.9809 172.545 107.931 172.545C140.882 172.545 167.608 145.853 167.608 112.894C167.608 79.9347 140.944 53.3139 107.931 53.3139Z" fill="white"/>
<path d="M420.611 167.357C379.528 167.549 379.528 134.203 379.528 128.892L379.458 3.97377L404.521 0V124.154C404.521 127.169 404.521 146.238 420.609 146.3V167.355L420.611 167.357ZM319.016 146.941C326.707 146.941 332.414 146.493 336.388 145.728V120.259C334.404 119.732 332.39 119.324 330.357 119.037C327.472 118.609 324.56 118.395 321.643 118.395C318.882 118.395 316.06 118.589 313.247 119.037C310.425 119.424 307.858 120.189 305.616 121.279C303.374 122.369 301.51 123.908 300.165 125.886C298.759 127.873 298.117 129.024 298.117 132.031C298.117 137.913 300.165 141.315 303.884 143.548C307.603 145.79 312.667 146.941 319.016 146.941ZM316.836 56.0635C325.1 56.0635 332.087 57.0921 337.731 59.1406C343.369 61.189 347.923 64.0638 351.253 67.7123C354.655 71.4223 356.959 76.3543 358.367 81.6029C359.844 86.8514 360.547 92.6099 360.547 98.9398V163.329C356.705 164.155 350.866 165.114 343.052 166.265C335.235 167.417 326.454 167.997 316.702 167.997C310.232 167.997 304.271 167.355 298.952 166.142C293.563 164.929 289.018 162.942 285.167 160.19C281.387 157.439 278.441 153.913 276.261 149.57C274.142 145.21 273.052 139.073 273.052 132.673C273.052 126.528 274.265 122.624 276.648 118.395C279.074 114.175 282.345 110.72 286.451 108.03C290.618 105.34 295.356 103.423 300.807 102.272C306.258 101.12 311.964 100.54 317.854 100.54C320.614 100.54 323.498 100.733 326.575 101.05C329.59 101.375 332.861 101.955 336.325 102.782V98.6848C336.325 95.81 336 93.0582 335.296 90.4999C334.62 87.9787 333.392 85.6394 331.7 83.6513C329.969 81.6644 327.735 80.1259 324.913 79.0445C322.091 77.9544 318.496 77.1192 314.205 77.1192C308.438 77.1192 303.181 77.8225 298.372 78.6577C293.563 79.4841 289.589 80.4512 286.574 81.5325L283.567 60.9956C286.705 59.9054 291.383 58.8153 297.414 57.7339C303.436 56.5734 309.915 56.0635 316.834 56.0635H316.836ZM811.816 146.238C819.508 146.238 825.205 145.79 829.179 145.016V119.556C827.772 119.169 825.786 118.721 823.157 118.334C820.27 117.906 817.355 117.692 814.436 117.692C811.684 117.692 808.862 117.885 806.04 118.334C803.227 118.721 800.659 119.486 798.418 120.576C796.167 121.666 794.312 123.204 792.967 125.182C791.551 127.169 790.918 128.321 790.918 131.328C790.918 137.209 792.967 140.612 796.686 142.845C800.466 145.148 805.468 146.238 811.816 146.238ZM809.697 55.4305C817.961 55.4305 824.949 56.4503 830.593 58.4988C836.228 60.5472 840.782 63.422 844.114 67.0705C847.446 70.719 849.82 75.7126 851.227 80.9611C852.703 86.2096 853.407 91.9681 853.407 98.3068V162.687C849.565 163.513 843.727 164.472 835.912 165.632C828.096 166.784 819.313 167.355 809.564 167.355C803.093 167.355 797.132 166.714 791.815 165.5C786.426 164.287 781.881 162.3 778.03 159.548C774.25 156.797 771.305 153.271 769.124 148.928C767.006 144.577 765.915 138.431 765.915 132.031C765.915 125.886 767.137 121.982 769.511 117.754C771.938 113.534 775.208 110.079 779.314 107.388C783.481 104.707 788.219 102.782 793.67 101.63C799.121 100.478 804.827 99.9068 810.726 99.9068C813.477 99.9068 816.361 100.1 819.438 100.417C822.515 100.733 825.724 101.313 829.179 102.149V98.0518C829.179 95.1682 828.863 92.4165 828.159 89.8581C827.485 87.3362 826.257 84.9964 824.564 83.0095C822.832 81.0226 820.599 79.4841 817.777 78.4028C814.953 77.3126 811.359 76.4862 807.069 76.4862C801.301 76.4862 796.044 77.1895 791.235 78.0159C786.426 78.8511 782.452 79.8094 779.437 80.8996L776.43 60.3538C779.569 59.2636 784.246 58.1823 790.277 57.0921C796.299 56.002 802.769 55.4305 809.697 55.4305ZM734.442 43.5268C742.836 43.5268 749.704 36.7398 749.704 28.3527C749.704 19.9743 742.906 13.1873 734.442 13.1873C725.984 13.1873 719.188 19.9743 719.188 28.3527C719.188 36.7398 726.046 43.5268 734.442 43.5268ZM747.066 167.355H721.877V59.3252L747.065 55.3602V167.355H747.066ZM702.905 167.357C661.822 167.549 661.822 134.203 661.822 128.892L661.752 3.97377L686.816 0V124.154C686.816 127.169 686.816 146.238 702.905 146.3V167.357ZM621.434 112.066C621.434 101.243 619.06 92.223 614.446 85.9547C609.831 79.616 603.36 76.4862 595.087 76.4862C586.823 76.4862 580.342 79.616 575.735 85.9547C571.12 92.2846 568.871 101.243 568.871 112.066C568.871 123.011 571.183 130.361 575.799 136.699C580.414 143.1 586.885 146.238 595.158 146.238C603.422 146.238 609.901 143.038 614.517 136.699C619.13 130.299 621.434 123.011 621.434 112.066ZM647.07 112.004C647.07 120.453 645.857 126.844 643.353 133.825C640.856 140.796 637.331 146.748 632.785 151.68C628.231 156.603 622.781 160.445 616.37 163.135C609.963 165.817 600.088 167.355 595.156 167.355C590.215 167.294 580.413 165.887 574.065 163.135C567.718 160.384 562.267 156.603 557.722 151.68C553.168 146.748 549.644 140.796 547.077 133.825C544.517 126.844 543.235 120.453 543.235 112.004C543.235 103.555 544.385 95.4232 546.952 88.513C549.519 81.6029 553.106 75.7126 557.722 70.7893C562.337 65.8573 567.849 62.0769 574.127 59.3955C580.474 56.7053 587.463 55.4305 595.024 55.4305C602.594 55.4305 609.574 56.7668 615.983 59.3955C622.401 62.0769 627.915 65.8573 632.399 70.7893C636.942 75.7126 640.469 81.6029 643.036 88.513C645.727 95.4232 647.072 103.555 647.072 112.004H647.07ZM458.432 112.004C458.432 122.492 460.735 134.141 465.351 139.003C469.966 143.873 475.925 146.3 483.242 146.3C487.215 146.3 490.996 145.728 494.519 144.638C498.045 143.548 500.86 142.264 503.11 140.735V78.5962C501.317 78.2094 493.816 76.6708 486.565 76.4862C477.466 76.2225 470.547 79.9413 465.676 85.8844C460.865 91.845 458.432 102.272 458.432 112.004ZM528.105 161.404C528.105 178.494 523.744 190.969 514.96 198.908C506.186 206.838 492.787 210.812 474.712 210.812C468.11 210.812 454.395 209.528 443.432 207.102L447.467 187.259C456.637 189.176 468.751 189.695 475.099 189.695C485.156 189.695 492.339 187.646 496.629 183.549C500.928 179.452 503.038 173.378 503.038 165.307V161.21C500.542 162.423 497.271 163.645 493.236 164.929C489.201 166.142 484.523 166.784 479.257 166.784C472.338 166.784 466.052 165.694 460.356 163.513C454.65 161.342 449.709 158.142 445.674 153.913C441.638 149.693 438.43 144.383 436.188 138.044C433.946 131.706 432.785 120.382 432.785 112.066C432.785 104.259 434.007 94.4649 436.383 87.9328C438.816 81.4095 442.273 75.7741 446.957 71.1058C451.575 66.4375 457.217 62.8506 463.819 60.2219C470.422 57.602 478.167 55.9404 486.563 55.9404C494.713 55.9404 502.212 56.9603 509.518 58.1823C516.823 59.3955 523.039 60.6703 528.103 62.0769V161.404H528.105Z" fill="#5468FF"/>
</svg>
