<svg width="172" height="100" viewBox="0 0 172 100" fill="none" xmlns="http://www.w3.org/2000/svg">
<path d="M172 97.4067C165.743 99.0011 161.873 97.4767 158.401 92.2519L133.708 58.0157L130.139 53.2756L101.303 92.365C98.0078 97.0673 94.5516 99.1142 88.4026 97.4498L125.329 47.7761L90.9504 2.90708C96.8629 1.75439 100.948 2.34151 104.576 7.64715L130.188 42.3089L155.988 7.83567C159.293 3.13332 162.846 1.34502 168.78 3.07945L155.45 20.79L137.39 44.3557C135.24 47.0489 135.536 48.8911 137.514 51.4927L172 97.4067ZM0.043 46.9466L3.06375 32.0585C11.2875 2.59467 44.9888 -9.64869 68.2303 8.55746C81.8129 19.2657 85.1884 34.4123 84.5165 51.3796H7.955C6.80475 81.9207 28.7401 100.353 56.7063 90.9484C66.5156 87.6465 72.2937 79.9493 75.1855 70.3183C76.6529 65.4921 79.0824 64.738 83.6081 66.1169C81.2969 78.161 76.0831 88.2228 65.0644 94.5196C48.6007 103.946 25.1012 100.897 12.7387 87.7973C5.375 80.197 2.33275 70.5661 0.9675 60.2672C0.7525 58.5651 0.3225 56.9438 0 55.3117C0.0286667 52.5251 0.043 49.7385 0.043 46.952V46.9466ZM8.09475 44.8997H77.2818C76.8303 22.8153 63.1079 7.13005 44.3545 6.99539C23.7682 6.8338 8.987 22.1474 8.09475 44.8997Z" fill="white"/>
</svg>
