<svg width="64" height="64" viewBox="0 0 64 64" fill="none" xmlns="http://www.w3.org/2000/svg">
<g id="Frame">
<path id="Vector" d="M64 49.5893C61.672 50.1813 60.232 49.6153 58.94 47.6753L49.752 34.9633L48.424 33.2033L37.694 47.7173C36.468 49.4633 35.182 50.2233 32.894 49.6053L46.634 31.1613L33.842 14.5013C36.042 14.0733 37.562 14.2913 38.912 16.2613L48.442 29.1313L58.042 16.3313C59.272 14.5853 60.594 13.9213 62.802 14.5653L57.842 21.1413L51.122 29.8913C50.322 30.8913 50.432 31.5753 51.168 32.5413L64 49.5893ZM0.016 30.8533L1.14 25.3253C4.2 14.3853 16.74 9.83928 25.388 16.5993C30.442 20.5753 31.698 26.1993 31.448 32.4993H2.96C2.532 43.8393 10.694 50.6833 21.1 47.1913C24.75 45.9653 26.9 43.1073 27.976 39.5313C28.522 37.7393 29.426 37.4593 31.11 37.9713C30.25 42.4433 28.31 46.1793 24.21 48.5173C18.084 52.0173 9.34 50.8853 4.74 46.0213C2 43.1993 0.868 39.6233 0.36 35.7993C0.28 35.1673 0.12 34.5653 0 33.9593C0.0106667 32.9246 0.016 31.89 0.016 30.8553V30.8533ZM3.012 30.0933H28.756C28.588 21.8933 23.482 16.0693 16.504 16.0193C8.844 15.9593 3.344 21.6453 3.012 30.0933Z" fill="white"/>
</g>
</svg>
