<svg width="60" height="60" viewBox="0 0 60 60" fill="none" xmlns="http://www.w3.org/2000/svg">
<g clip-path="url(#clip0_437_887)">
<path d="M8.16094 45.7289L5.96094 44.4569L30.4969 1.96094L32.6969 3.23294L8.16094 45.7289Z" fill="#E10098"/>
<path d="M5.45312 41.0605H54.5291V43.6045H5.45312V41.0605Z" fill="#E10098"/>
<path d="M30.9757 56.6635L6.42969 42.4915L7.70169 40.2915L32.2477 54.4635L30.9757 56.6635ZM52.2997 19.7235L27.7517 5.55352L29.0237 3.35352L53.5697 17.5255L52.2997 19.7235Z" fill="#E10098"/>
<path d="M7.70169 19.7158L6.42969 17.5158L30.9977 3.33984L32.2697 5.53984L7.70169 19.7158Z" fill="#E10098"/>
<path d="M51.8424 45.7271L27.3024 3.22708L29.5024 1.95508L54.0424 44.4551L51.8424 45.7271ZM7.39844 15.8271H9.94244V44.1711H7.39844V15.8271ZM50.0544 15.8271H52.5984V44.1711H50.0544V15.8271Z" fill="#E10098"/>
<path d="M30.5397 55.5859L29.4297 53.6619L50.7797 41.3359L51.8897 43.2599L30.5397 55.5859Z" fill="#E10098"/>
<path d="M55.9736 45.001C55.2629 46.2283 54.0947 47.124 52.725 47.4917C51.3552 47.8595 49.8955 47.6693 48.6656 46.963C47.4383 46.2522 46.5426 45.0841 46.1749 43.7143C45.8071 42.3445 45.9973 40.8848 46.7036 39.655C47.4144 38.4276 48.5825 37.5319 49.9523 37.1642C51.3221 36.7964 52.7818 36.9866 54.0116 37.693C56.5856 39.179 57.4596 42.443 55.9716 45.001M13.2876 20.349C12.5769 21.5763 11.4087 22.472 10.039 22.8397C8.66919 23.2075 7.2095 23.0173 5.97964 22.311C4.75174 21.6002 3.8557 20.4317 3.48792 19.0614C3.12015 17.6912 3.31063 16.231 4.01764 15.001C4.72835 13.7736 5.89653 12.8779 7.26631 12.5102C8.63608 12.1424 10.0958 12.3326 11.3256 13.039C12.553 13.7497 13.4486 14.9178 13.8164 16.2876C14.1841 17.6574 13.994 19.1191 13.2876 20.349ZM4.03364 45.001C3.32727 43.7711 3.13713 42.3114 3.50488 40.9416C3.87263 39.5718 4.76828 38.4037 5.99564 37.693C7.2255 36.9866 8.68519 36.7964 10.055 37.1642C11.4247 37.5319 12.5929 38.4276 13.3036 39.655C14.01 40.8848 14.2001 42.3445 13.8324 43.7143C13.4646 45.0841 12.569 46.2522 11.3416 46.963C8.76764 48.433 5.50164 47.561 4.03364 45.001ZM46.7196 20.351C46.0133 19.1211 45.8231 17.6614 46.1909 16.2916C46.5586 14.9218 47.4543 13.7537 48.6816 13.043C49.9115 12.3366 51.3712 12.1464 52.741 12.5142C54.1107 12.8819 55.2789 13.7776 55.9896 15.005C56.696 16.2348 56.8862 17.6945 56.5184 19.0643C56.1507 20.4341 55.255 21.6022 54.0276 22.313C52.7978 23.0193 51.3381 23.2095 49.9683 22.8417C48.5985 22.474 47.4304 21.5783 46.7196 20.351ZM30.0036 60.001C28.9458 60.001 27.9118 59.6872 27.0322 59.0995C26.1527 58.5118 25.4673 57.6764 25.0625 56.6991C24.6578 55.7217 24.552 54.6463 24.7585 53.6089C24.9651 52.5714 25.4746 51.6185 26.2227 50.8706C26.9709 50.1228 27.924 49.6136 28.9615 49.4075C29.9991 49.2013 31.0744 49.3075 32.0516 49.7126C33.0288 50.1177 33.8639 50.8035 34.4513 51.6832C35.0387 52.563 35.352 53.5971 35.3516 54.655C35.3479 56.072 34.7832 57.4299 33.781 58.4318C32.7788 59.4336 31.4207 59.9978 30.0036 60.001ZM30.0036 10.697C29.301 10.698 28.6051 10.5604 27.9558 10.292C27.3065 10.0236 26.7165 9.62973 26.2197 9.13291C25.7229 8.63609 25.329 8.04611 25.0606 7.39679C24.7922 6.74747 24.6546 6.05156 24.6556 5.34895C24.6556 3.93084 25.219 2.57081 26.2217 1.56805C27.2245 0.565296 28.5845 0.00195313 30.0026 0.00195312C31.4208 0.00195313 32.7808 0.565296 33.7835 1.56805C34.7863 2.57081 35.3496 3.93084 35.3496 5.34895C35.3504 6.05122 35.2127 6.74675 34.9443 7.39571C34.6759 8.04468 34.2822 8.63433 33.7856 9.13091C33.289 9.62749 32.6994 10.0212 32.0504 10.2896C31.4014 10.558 30.7059 10.6977 30.0036 10.697Z" fill="#E10098"/>
</g>
<defs>
<clipPath id="clip0_437_887">
<rect width="60" height="60" fill="white"/>
</clipPath>
</defs>
</svg>
