<svg width="100" height="100" viewBox="0 0 100 100" fill="none" xmlns="http://www.w3.org/2000/svg">
<g clip-path="url(#clip0_5047_3851)">
<path d="M13.6003 76.215L9.93359 74.095L50.8269 3.26831L54.4936 5.38831L13.6003 76.215Z" fill="#E10098"/>
<path d="M9.08984 68.4343H90.8832V72.6743H9.08984V68.4343Z" fill="#E10098"/>
<path d="M51.6248 94.4391L10.7148 70.8191L12.8348 67.1524L53.7448 90.7724L51.6248 94.4391ZM87.1649 32.8724L46.2515 9.25578L48.3715 5.58911L89.2815 29.2091L87.1649 32.8724Z" fill="#E10098"/>
<path d="M12.8348 32.8597L10.7148 29.1931L51.6615 5.56641L53.7815 9.23307L12.8348 32.8597Z" fill="#E10098"/>
<path d="M86.4054 76.2119L45.5054 5.37855L49.172 3.25854L90.072 74.0919L86.4054 76.2119ZM12.332 26.3785H16.572V73.6186H12.332V26.3785ZM83.4254 26.3785H87.6654V73.6186H83.4254V26.3785Z" fill="#E10098"/>
<path d="M50.9008 92.6433L49.0508 89.4366L84.6341 68.8933L86.4841 72.1L50.9008 92.6433Z" fill="#E10098"/>
<path d="M93.2894 75.0015C92.1049 77.0471 90.1579 78.5399 87.875 79.1528C85.592 79.7657 83.1592 79.4488 81.1094 78.2715C79.0638 77.087 77.5711 75.14 76.9581 72.8571C76.3452 70.5741 76.6621 68.1413 77.8394 66.0915C79.0239 64.0459 80.9709 62.5532 83.2539 61.9402C85.5368 61.3273 87.9696 61.6442 90.0194 62.8215C94.3094 65.2982 95.7661 70.7382 93.2861 75.0015M22.1461 33.9148C20.9616 35.9604 19.0146 37.4532 16.7316 38.0661C14.4487 38.679 12.0158 38.3621 9.96606 37.1848C7.91956 36.0003 6.42616 34.0527 5.8132 31.769C5.20024 29.4852 5.51772 27.0516 6.69606 25.0015C7.88058 22.9559 9.82756 21.4632 12.1105 20.8502C14.3935 20.2373 16.8263 20.5542 18.8761 21.7315C20.9217 22.916 22.4144 24.863 23.0273 27.146C23.6402 29.4289 23.3233 31.8651 22.1461 33.9148ZM6.72273 75.0015C5.54545 72.9517 5.22855 70.5189 5.84146 68.236C6.45438 65.953 7.94713 64.006 9.99273 62.8215C12.0425 61.6442 14.4753 61.3273 16.7583 61.9402C19.0412 62.5532 20.9882 64.0459 22.1727 66.0915C23.35 68.1413 23.6669 70.5741 23.054 72.8571C22.4411 75.14 20.9483 77.087 18.9027 78.2715C14.6127 80.7215 9.1694 79.2682 6.72273 75.0015ZM77.8661 33.9182C76.6888 31.8684 76.3719 29.4356 76.9848 27.1526C77.5977 24.8697 79.0905 22.9227 81.1361 21.7382C83.1858 20.5609 85.6187 20.244 87.9016 20.8569C90.1846 21.4698 92.1316 22.9626 93.3161 25.0082C94.4934 27.0579 94.8103 29.4908 94.1973 31.7737C93.5844 34.0567 92.0917 36.0037 90.0461 37.1882C87.9963 38.3655 85.5635 38.6824 83.2805 38.0694C80.9976 37.4565 79.0506 35.9638 77.8661 33.9182ZM50.0061 100.002C48.243 100.002 46.5196 99.4787 45.0537 98.4991C43.5879 97.5196 42.4454 96.1273 41.7709 94.4984C41.0964 92.8695 40.9201 91.0772 41.2642 89.348C41.6084 87.6189 42.4577 86.0307 43.7046 84.7843C44.9515 83.5379 46.54 82.6893 48.2692 82.3457C49.9984 82.0022 51.7907 82.1791 53.4194 82.8543C55.048 83.5294 56.4398 84.6724 57.4189 86.1386C58.3979 87.6049 58.9201 89.3285 58.9194 91.0915C58.9132 93.4533 57.9721 95.7165 56.3017 97.3862C54.6314 99.0559 52.3678 99.9962 50.0061 100.002ZM50.0061 17.8282C48.8351 17.8299 47.6752 17.6006 46.593 17.1533C45.5108 16.7059 44.5275 16.0495 43.6995 15.2214C42.8714 14.3934 42.215 13.4101 41.7676 12.3279C41.3203 11.2457 41.091 10.0859 41.0927 8.91484C41.0927 6.55132 42.0316 4.2846 43.7029 2.61334C45.3742 0.942079 47.6409 0.00317383 50.0044 0.00317383C52.3679 0.00317383 54.6346 0.942079 56.3059 2.61334C57.9772 4.2846 58.9161 6.55132 58.9161 8.91484C58.9174 10.0853 58.6878 11.2445 58.2405 12.3261C57.7932 13.4077 57.137 14.3905 56.3093 15.2181C55.4817 16.0457 54.4989 16.702 53.4173 17.1493C52.3357 17.5966 51.1765 17.8295 50.0061 17.8282Z" fill="#E10098"/>
</g>
<defs>
<clipPath id="clip0_5047_3851">
<rect width="100" height="100" fill="white"/>
</clipPath>
</defs>
</svg>
