<svg width="864" height="209" viewBox="0 0 864 209" fill="none" xmlns="http://www.w3.org/2000/svg">
<path d="M781.191 170.6C761.168 170.6 745.562 154.185 745.562 134.252C745.562 114.32 761.168 97.9042 781.191 97.9042C801.214 97.9042 816.82 114.32 816.82 134.252C816.82 154.185 801.214 170.6 781.191 170.6ZM771.18 209C788.258 209 810.048 202.551 822.121 177.342L823.298 177.928C817.998 191.705 817.998 199.913 817.998 201.965V205.19H860.988V63.3156H817.998V66.54C817.998 68.5919 817.998 76.7994 823.298 90.5764L822.121 91.1627C810.048 65.9538 788.258 59.5049 771.18 59.5049C730.25 59.5049 701.393 91.7489 701.393 134.252C701.393 176.756 730.25 209 771.18 209ZM626.602 59.5049C607.168 59.5049 591.856 66.2468 579.489 91.1627L578.311 90.5764C583.611 76.7994 583.611 68.5919 583.611 66.54V63.3156H540.621V205.19H584.789V130.442C584.789 110.802 596.273 98.4913 614.823 98.4913C633.375 98.4913 642.503 109.044 642.503 130.149V205.19H686.671V114.906C686.671 82.662 661.347 59.5049 626.602 59.5049ZM476.724 91.1627L475.546 90.5764C480.846 76.7994 480.846 68.5919 480.846 66.54V63.3156H437.856V205.19H482.024L482.319 136.89C482.319 116.958 492.919 104.94 510.292 104.94C515.003 104.94 518.831 105.526 523.248 106.698V63.3156C503.814 59.2118 486.441 66.54 476.724 91.1627ZM336.269 170.6C316.246 170.6 300.64 154.185 300.64 134.252C300.64 114.32 316.246 97.9042 336.269 97.9042C356.292 97.9042 371.898 114.32 371.898 134.252C371.898 154.185 356.292 170.6 336.269 170.6ZM326.257 209C343.336 209 365.125 202.551 377.198 177.342L378.376 177.928C373.075 191.705 373.075 199.913 373.075 201.965V205.19H416.066V63.3156H373.075V66.54C373.075 68.5919 373.075 76.7994 378.376 90.5764L377.198 91.1627C365.125 65.9538 343.336 59.5049 326.257 59.5049C285.328 59.5049 256.471 91.7489 256.471 134.252C256.471 176.756 285.328 209 326.257 209ZM194.93 205.19H239.098V0H194.93V205.19ZM162.539 0H117.488C117.488 36.6409 94.8148 69.4712 60.3634 92.9215L46.8185 102.302V0H0V205.19H46.8185V103.474L124.26 205.19H181.385L106.887 107.871C140.749 83.5414 162.834 45.7279 162.539 0Z" fill="#FFA8CD"/>
</svg>
