<svg width="20" height="20" viewBox="0 0 20 20" fill="none" xmlns="http://www.w3.org/2000/svg">
<path fill-rule="evenodd" clip-rule="evenodd" d="M13.7126 6.28638C13.0117 5.58588 12.1268 5.09806 11.1603 4.87931C10.1938 4.66056 9.18514 4.71982 8.2509 5.05024C7.31665 5.38066 6.495 5.96874 5.88093 6.7465C5.26686 7.52426 4.88545 8.45993 4.78079 9.44534C4.67614 10.4308 4.85251 11.4257 5.28952 12.3151C5.72654 13.2044 6.40634 13.952 7.25034 14.4713C8.09435 14.9905 9.06808 15.2603 10.059 15.2495C11.0499 15.2386 12.0175 14.9475 12.8499 14.4099C12.9462 14.3438 13.0549 14.2977 13.1693 14.2743C13.2838 14.2509 13.4018 14.2506 13.5164 14.2735C13.6309 14.2965 13.7397 14.3421 13.8364 14.4077C13.933 14.4734 14.0155 14.5577 14.0791 14.6558C14.1426 14.7539 14.1858 14.8637 14.2062 14.9787C14.2266 15.0937 14.2238 15.2117 14.1979 15.3256C14.172 15.4395 14.1235 15.5471 14.0553 15.642C13.9872 15.7369 13.9007 15.8172 13.801 15.8781C12.4944 16.723 10.9435 17.1085 9.39334 16.9737C7.84319 16.8388 6.38216 16.1913 5.24106 15.1335C4.09996 14.0756 3.34385 12.6677 3.09218 11.1322C2.84051 9.59669 3.10762 8.02109 3.85132 6.65432C4.59501 5.28755 5.7729 4.20753 7.19889 3.58488C8.62488 2.96224 10.2177 2.83245 11.7257 3.21605C13.2336 3.59964 14.5708 4.47473 15.526 5.70308C16.4811 6.93142 16.9998 8.443 17 9.999C17.0002 10.4866 16.8645 10.9645 16.6083 11.3794C16.3521 11.7942 15.9854 12.1294 15.5493 12.3476C15.1133 12.5657 14.6251 12.658 14.1395 12.6143C13.6539 12.5705 13.1901 12.3924 12.8 12.0999C12.3014 12.7647 11.5825 13.2304 10.7719 13.4137C9.96131 13.597 9.11197 13.4858 8.37583 13.1002C7.63969 12.7146 7.06479 12.0796 6.75399 11.3088C6.44319 10.5381 6.41678 9.68192 6.67948 8.8935C6.94218 8.10507 7.47684 7.43584 8.18781 7.00556C8.89878 6.57527 9.73966 6.412 10.56 6.54497C11.3803 6.67793 12.1266 7.09845 12.6652 7.73128C13.2039 8.36411 13.4998 9.16796 13.5 9.999C13.5 10.2311 13.5922 10.4536 13.7563 10.6177C13.9204 10.7818 14.1429 10.874 14.375 10.874C14.6071 10.874 14.8296 10.7818 14.9937 10.6177C15.1578 10.4536 15.25 10.2311 15.25 9.999C15.25 8.65413 14.7373 7.31275 13.7126 6.28638ZM11.75 9.999C11.75 9.53487 11.5656 9.08975 11.2374 8.76157C10.9093 8.43338 10.4641 8.249 10 8.249C9.53588 8.249 9.09076 8.43338 8.76257 8.76157C8.43438 9.08975 8.25001 9.53487 8.25001 9.999C8.25001 10.4631 8.43438 10.9082 8.76257 11.2364C9.09076 11.5646 9.53588 11.749 10 11.749C10.4641 11.749 10.9093 11.5646 11.2374 11.2364C11.5656 10.9082 11.75 10.4631 11.75 9.999Z" fill="#005B96"/>
<circle cx="10" cy="10" r="9.25" stroke="#005B96" stroke-width="1.5"/>
</svg>
