<svg width="158" height="204" viewBox="0 0 158 204" fill="none" xmlns="http://www.w3.org/2000/svg">
<path d="M131.338 61.27C127.597 72.3543 121.871 81.2671 115.757 86.7529C109.564 92.3098 103.475 93.9669 98.6951 91.9475C93.915 89.9281 90.3252 84.1821 88.9611 75.4326C87.6145 66.7951 88.584 55.8729 92.3254 44.7886C96.0669 33.7043 101.793 24.7915 107.907 19.3058C114.1 13.7489 120.188 12.0917 124.968 14.1111C129.749 16.1305 133.338 21.8765 134.702 30.626C136.049 39.2635 135.08 50.1858 131.338 61.27Z" fill="white" stroke="#0572AF" stroke-width="5"/>
<rect x="77.1525" y="40.9041" width="69" height="60" transform="rotate(3.96856 77.1525 40.9041)" fill="white"/>
<path d="M112.5 187L21.5 196.5L23 191.5L112.5 187Z" fill="#0572AF" fill-opacity="0.6"/>
<path d="M130.5 185L151 167.5L155 169.5L130.5 185Z" fill="#0572AF" fill-opacity="0.6"/>
<path d="M150 43.5L155 169.5L151 167.5L150 43.5Z" fill="#0572AF" fill-opacity="0.6"/>
<path d="M71 41.5L21.5 196.5L0.395813 198.741L71 41.5Z" fill="#0572AF"/>
<path d="M149.938 43.3676L130.5 185L112.5 187L149.938 43.3676Z" fill="#0572AF"/>
<path d="M71.1567 41.3236L85.5 41.3236L120 159.5L112.5 187L71.1567 41.3236Z" fill="#0572AF"/>
</svg>
