<svg width="158" height="206" viewBox="0 0 158 206" fill="none" xmlns="http://www.w3.org/2000/svg">
<path d="M132.72 61.8538C128.914 73.1281 123.069 82.2675 116.742 87.9443C110.384 93.6495 103.741 95.703 98.2153 93.3687C92.6898 91.0344 88.9184 84.5813 87.518 75.5982C86.1245 66.6599 87.138 55.4792 90.9437 44.2049C94.7493 32.9305 100.595 23.7911 106.921 18.1143C113.28 12.4091 119.923 10.3556 125.448 12.6899C130.974 15.0242 134.745 21.4774 136.146 30.4605C137.539 39.3987 136.525 50.5794 132.72 61.8538Z" fill="white" stroke="#0572AF" stroke-width="2"/>
<rect x="77.1525" y="40.9041" width="69" height="60" transform="rotate(3.96856 77.1525 40.9041)" fill="white"/>
<path d="M120.034 186.507L13.5 197.5L14.976 192.594L120.034 186.507Z" fill="#0572AF" fill-opacity="0.6"/>
<path d="M130.5 185L152 168L155 169.5L130.5 185Z" fill="#0572AF" fill-opacity="0.6"/>
<path d="M150 43.5L155 169.5L152 168L150 43.5Z" fill="#0572AF" fill-opacity="0.6"/>
<path d="M71 41.5L13.5 197.5L0.395813 198.741L71 41.5Z" fill="#0572AF"/>
<path d="M149.938 43.3676L130.5 185L120 186.5L149.938 43.3676Z" fill="#0572AF"/>
<path d="M71.1567 41.3236L79.5 41.3236L127 185L120 186.5L71.1567 41.3236Z" fill="#0572AF"/>
</svg>
