<svg width="699" height="227" viewBox="0 0 699 227" fill="none" xmlns="http://www.w3.org/2000/svg">
<path d="M43.6238 117.209C42.1284 117.133 40.6293 117.235 39.1577 117.511C36.7027 117.908 34.351 118.79 32.2397 120.105C30.1284 121.421 28.2998 123.145 26.8603 125.175C25.4208 127.205 24.3993 129.503 23.8552 131.932C23.3111 134.362 23.2554 136.876 23.6913 139.327C24.7612 149.438 35.5262 157.963 45.4917 158.217C46.5145 158.243 47.5375 158.175 48.5478 158.014C59.3317 156.266 62.1551 145.139 60.3776 134.209C58.3697 121.869 49.5858 117.519 43.6238 117.209ZM54.1903 146.446C53.7351 147.129 53.1032 147.674 52.3622 148.025C51.6213 148.376 50.799 148.518 49.9834 148.437C48.5497 148.324 47.2128 147.669 46.2434 146.605C45.274 145.541 44.7446 144.148 44.7624 142.708C44.7375 140.789 45.107 138.886 45.8479 137.116C46.3105 135.992 46.355 134.738 45.9732 133.584C45.5914 132.43 44.8086 131.451 43.7672 130.825C42.4875 130.031 40.9521 129.759 39.4779 130.065C38.05 130.339 36.7882 131.168 35.9674 132.369C35.4133 133.266 34.9807 134.233 34.681 135.244C34.6226 135.421 34.5763 135.56 34.5411 135.651C34.0524 136.898 33.2727 137.263 32.7455 137.195C32.5513 137.16 32.3715 137.069 32.2275 136.934C32.0834 136.799 31.9813 136.625 31.9331 136.433C31.6597 134.767 31.7878 133.06 32.3069 131.455C32.826 129.849 33.7209 128.39 34.9172 127.201C35.959 126.16 37.2244 125.37 38.617 124.893C40.0096 124.416 41.4927 124.263 42.9531 124.447C44.4868 124.631 45.9525 125.187 47.2238 126.065C48.495 126.944 49.5336 128.119 50.2497 129.49C50.9387 131.139 51.2174 132.931 51.0619 134.712C50.9063 136.493 50.3211 138.21 49.3566 139.714C49.2347 139.975 49.123 140.213 49.0277 140.426C48.6808 141.015 48.4893 141.683 48.4713 142.367C48.4533 143.051 48.6093 143.728 48.9247 144.335C49.2022 144.705 49.5644 145.003 49.9809 145.204C50.3974 145.405 50.8559 145.502 51.3179 145.488C51.759 145.483 52.1978 145.424 52.6249 145.314C53.1788 145.191 53.7515 145.065 54.1002 145.48C54.2158 145.611 54.287 145.775 54.3032 145.948C54.3194 146.122 54.2799 146.296 54.1903 146.446Z" fill="white"/>
<path d="M181.43 167.18C183.68 161.463 184.981 155.416 185.281 149.278C185.281 141.733 181.014 138.605 178.297 138.605C178.214 138.314 177.677 136.346 176.937 133.978C176.513 132.604 176.011 131.256 175.432 129.941C177.656 126.865 178.597 123.044 178.056 119.286C177.611 116.388 176.235 113.714 174.137 111.67C170.153 108.284 165.4 105.93 160.295 104.815C159.526 104.6 156.991 103.904 156.768 103.836C156.751 103.691 156.583 95.5237 156.43 92.0174C156.364 88.5015 155.841 85.0092 154.873 81.6288C153.671 76.7776 151.185 72.3406 147.677 68.7844C156.46 59.6814 161.943 49.6541 161.929 41.0519C161.904 24.5086 141.585 19.5024 116.545 29.8702C116.517 29.8819 111.276 32.1034 111.239 32.1225C111.216 32.0992 101.647 22.7131 101.504 22.5868C72.9549 -2.31139 -16.3079 96.8938 12.2312 120.988L18.4681 126.271C16.7851 130.786 16.1909 135.636 16.7338 140.425C17.5792 147.393 21.0188 153.784 26.3654 158.323C31.5551 163.039 38.2599 165.739 45.2655 165.932C56.3714 191.522 81.7459 207.22 111.499 208.104C143.414 209.051 170.205 194.078 181.43 167.18ZM187.981 136.896C190.715 140.429 192.122 144.812 191.955 149.278C191.668 156.245 190.213 163.114 187.651 169.598L187.591 169.75C181.799 183.695 171.688 195.408 158.747 203.164C145.277 211.009 129.93 215.038 114.349 214.821C113.341 214.821 112.313 214.805 111.301 214.775C95.9231 214.453 80.9116 210.016 67.8243 201.925C56.3045 194.696 46.9821 184.446 40.8692 172.287C33.8265 171.192 27.2515 168.077 21.9392 163.32C15.3343 157.669 11.1033 149.731 10.0924 141.092C9.6419 136.894 9.88493 132.651 10.8117 128.532L7.91627 126.08C5.5726 124.054 3.66798 121.568 2.31965 118.776C0.971329 115.985 0.207825 112.947 0.0761381 109.849C-0.161426 103.418 0.948539 97.0084 3.33457 91.0331C9.27826 74.7846 22.9515 55.4367 39.9131 39.2762C47.4822 31.9216 55.8787 25.472 64.9338 20.0571C72.4863 15.2202 81.1604 12.4227 90.1124 11.9366C95.8862 11.7859 101.51 13.7891 105.891 17.5573C106.141 17.7757 109.89 21.4465 112.733 24.2352C113.446 23.9338 113.96 23.7169 113.975 23.7112C122.386 20.0427 131.425 18.0342 140.596 17.7956C157.589 17.7956 168.583 26.9202 168.604 41.0418C168.618 49.7553 164.345 59.5234 156.468 68.9794C158.611 72.2973 160.233 75.9251 161.275 79.7359C162.394 83.6371 163.007 87.6662 163.098 91.724C163.175 93.4697 163.253 96.2709 163.316 98.7433C169.127 100.216 174.497 103.072 178.97 107.067C182.003 110.08 183.991 113.986 184.645 118.213C185.301 122.386 184.658 126.66 182.801 130.452C182.966 130.927 183.138 131.443 183.309 131.99C183.458 132.466 183.598 132.926 183.729 133.362C185.365 134.248 186.81 135.449 187.981 136.896Z" fill="white"/>
<path d="M167.75 128.634C168.832 127.615 169.676 126.37 170.222 124.986C170.768 123.603 171.001 122.116 170.906 120.632C170.689 119.136 169.992 117.751 168.92 116.687C165.774 114.072 162.031 112.277 158.024 111.462C156.194 110.942 154.952 110.609 153.615 110.164C151.236 109.371 150.06 108.733 149.794 104.204C149.678 102.224 149.336 95.3245 149.213 92.4737C148.997 87.478 148.402 80.6497 144.218 77.8305C143.153 77.1235 141.915 76.723 140.639 76.6728C139.925 76.6288 139.208 76.6998 138.516 76.8831C136.392 77.38 134.459 78.4861 132.953 80.0662C131.003 81.8486 128.705 83.2056 126.204 84.051C123.703 84.8963 121.053 85.2116 118.424 84.9767C115.495 84.8523 112.391 84.3908 108.833 84.1772C108.141 84.1363 107.447 84.0929 106.753 84.0561C102.156 84.1921 97.7601 85.9783 94.3682 89.089C90.9762 92.1997 88.814 96.4276 88.2758 101.002C86.2388 115.189 96.3877 122.521 99.3175 126.823C99.7705 127.372 100.051 128.043 100.124 128.752C100.048 129.537 99.6748 130.264 99.0809 130.784L99.0817 130.788C95.0244 135.361 92.1759 140.879 90.7962 146.838C89.4165 152.798 89.5496 159.008 91.1834 164.902C91.5706 166.318 92.0669 167.701 92.6681 169.04C100.073 186.559 123.046 194.718 145.49 187.298C148.43 186.325 151.282 185.105 154.016 183.651C158.937 181.188 163.363 177.839 167.073 173.772C172.862 167.893 176.664 160.345 177.944 152.189C178.62 147.674 177.63 145.927 176.283 145.086C175.331 144.55 174.228 144.346 173.147 144.507C172.576 140.962 171.573 137.501 170.162 134.201L167.75 128.634Z" fill="white"/>
<path d="M130.969 60.9723C131.331 61.0556 131.561 60.4292 131.237 60.2473C125.876 57.4652 119.962 55.9155 113.926 55.7111C113.868 55.7102 113.812 55.6933 113.762 55.6622C113.713 55.6311 113.674 55.5871 113.648 55.5349C113.623 55.4828 113.612 55.4246 113.617 55.3667C113.623 55.3088 113.644 55.2536 113.679 55.207C114.617 53.9791 115.712 52.8801 116.936 51.9382C116.991 51.8956 117.031 51.8365 117.05 51.7696C117.069 51.7028 117.066 51.6316 117.041 51.5665C117.017 51.5015 116.972 51.4459 116.914 51.408C116.856 51.3702 116.787 51.3519 116.718 51.356C109.328 52.0829 102.223 54.5907 96.0122 58.6652C95.9592 58.701 95.8967 58.7201 95.8328 58.7199C95.7689 58.7198 95.7065 58.7004 95.6538 58.6644C95.601 58.6283 95.5602 58.5772 95.5367 58.5177C95.5133 58.4582 95.5082 58.393 95.5221 58.3306C96.0225 56.4623 96.7588 54.6656 97.7132 52.9839C97.7447 52.9262 97.7568 52.8599 97.7478 52.7947C97.7387 52.7296 97.7091 52.6691 97.6631 52.6221C97.6171 52.5751 97.5573 52.5442 97.4925 52.5338C97.4276 52.5234 97.3612 52.5342 97.3029 52.5645C88.3335 57.4973 80.3394 64.0292 73.7141 71.8384C73.6623 71.8979 73.6342 71.9743 73.635 72.0532C73.6359 72.132 73.6656 72.2079 73.7186 72.2662C73.7716 72.3245 73.8442 72.3613 73.9226 72.3696C74.0009 72.3778 74.0795 72.357 74.1435 72.311C81.8212 66.9389 90.4707 63.116 99.6085 61.0561C109.923 58.6736 120.642 58.645 130.969 60.9723Z" fill="white"/>
<path d="M104.552 35.6306C104.552 35.6306 96.7822 26.6231 94.4367 25.9587C80.006 22.0596 48.8339 43.555 28.9305 71.9545C20.877 83.4451 9.34842 103.794 14.8611 114.26C16.8204 116.609 19.0292 118.739 21.4485 120.61C25.142 115.426 30.7009 111.88 36.954 110.719C44.8016 88.7508 58.5772 69.3903 76.7508 54.7883C85.4715 47.6417 94.7708 41.2337 104.552 35.6306Z" fill="white"/>
<path d="M53.6678 146.056C53.7797 146.192 53.848 146.358 53.8636 146.533C53.8792 146.709 53.8415 146.885 53.7554 147.038C53.3365 147.719 52.7361 148.269 52.0217 148.626C51.3074 148.983 50.5076 149.134 49.7125 149.06C48.2955 148.907 46.9893 148.221 46.0579 147.141C45.1265 146.061 44.6393 144.667 44.6948 143.241C44.6708 141.298 45.0252 139.369 45.738 137.561C46.188 136.428 46.235 135.175 45.871 134.012C45.507 132.849 44.7543 131.846 43.7393 131.173C43.1386 130.775 42.4643 130.502 41.7563 130.369C41.0483 130.236 40.3209 130.247 39.6171 130.4C38.9275 130.546 38.2739 130.828 37.6947 131.229C37.1156 131.631 36.6225 132.145 36.2445 132.741C35.7099 133.657 35.2942 134.638 35.0076 135.66C34.9522 135.84 34.9076 135.981 34.8738 136.072C34.4041 137.341 33.6553 137.711 33.148 137.643C32.9081 137.61 32.5783 137.449 32.3669 136.868C32.1015 135.19 32.222 133.473 32.719 131.848C33.216 130.223 34.0765 128.733 35.2351 127.491C36.2082 126.445 37.416 125.646 38.7586 125.16C40.1013 124.673 41.5403 124.514 42.9565 124.695C44.4569 124.902 45.8827 125.478 47.1063 126.371C48.3299 127.265 49.313 128.448 49.9677 129.816C50.6307 131.497 50.8982 133.308 50.7496 135.109C50.6009 136.909 50.0401 138.652 49.1105 140.201C48.9929 140.464 48.8852 140.706 48.7945 140.924C48.4603 141.529 48.2767 142.206 48.2595 142.897C48.2422 143.588 48.3917 144.273 48.6954 144.894C48.9521 145.265 49.2965 145.565 49.6978 145.77C50.0991 145.974 50.5447 146.075 50.9947 146.065C51.419 146.059 51.8408 145.999 52.2501 145.887C52.7829 145.762 53.3333 145.634 53.6678 146.056ZM184.994 149.339C184.696 155.462 183.404 161.496 181.168 167.203C170.016 194.044 143.401 208.987 111.695 208.041C82.1373 207.159 56.928 191.494 45.8948 165.958C38.9296 165.763 32.2663 163.068 27.1194 158.365C21.8025 153.826 18.3864 147.45 17.5505 140.504C17.011 135.726 17.6012 130.887 19.2734 126.379L13.0772 121.107C-15.2747 97.064 73.4025 -1.93273 101.765 22.9137C101.908 23.0388 111.413 32.4061 111.437 32.4292C111.475 32.4099 116.681 30.1924 116.708 30.1816C141.584 19.8354 161.77 24.8309 161.796 41.3386C161.809 49.9237 156.362 59.9302 147.637 69.0134C151.124 72.5669 153.593 76.9937 154.785 81.8303C155.747 85.2046 156.267 88.6898 156.332 92.1982C156.484 95.6967 156.651 103.847 156.668 103.992C156.889 104.059 159.408 104.753 160.171 104.969C165.247 106.084 169.97 108.433 173.923 111.81C176.01 113.853 177.376 116.52 177.817 119.409C178.355 123.157 177.42 126.968 175.211 130.042C175.786 131.355 176.285 132.7 176.705 134.07C177.439 136.435 177.974 138.397 178.056 138.688C180.755 138.688 184.994 141.808 184.994 149.339ZM59.6994 134.61C57.7714 122.076 49.3296 117.659 43.6016 117.344C42.1638 117.268 40.722 117.371 39.3096 117.651C29.0859 119.722 23.3117 128.457 24.4479 139.807C25.2754 144.898 27.7931 149.561 31.5943 153.043C35.3955 156.524 40.2579 158.62 45.3959 158.992C46.3791 159.019 47.3626 158.949 48.3325 158.785C58.6947 157.011 61.4076 145.71 59.6994 134.61ZM77.1741 55.0466C85.8345 47.9174 95.0728 41.5228 104.793 35.9292C104.793 35.9292 97.0751 26.941 94.7442 26.2786C80.4083 22.3864 49.4396 43.8371 29.667 72.1766C21.6665 83.6432 10.2135 103.95 15.6894 114.393C17.6347 116.737 19.8292 118.862 22.2339 120.731C25.8949 115.564 31.4189 112.024 37.6383 110.861C45.4194 88.9587 59.1032 69.6407 77.1741 55.0466ZM108.332 154.231C108.712 155.897 109.534 157.429 110.712 158.665C111.889 159.902 113.379 160.797 115.023 161.256C116.732 161.894 118.497 162.375 120.293 162.693C142.97 166.611 164.17 153.589 168.944 150.309C169.302 150.062 169.539 150.302 169.251 150.737C169.108 150.969 168.952 151.192 168.784 151.407C162.942 158.975 147.237 167.739 126.804 167.736C117.893 167.734 108.986 164.581 105.716 159.736C100.642 152.218 105.464 141.245 113.918 142.388C113.928 142.39 116.811 142.718 117.622 142.808C130.763 144.074 144.01 141.945 156.096 136.625C167.631 131.247 171.988 125.329 171.334 120.538C171.116 119.05 170.417 117.674 169.346 116.621C166.191 114.021 162.446 112.239 158.441 111.433C156.609 110.917 155.366 110.587 154.026 110.144C151.646 109.356 150.469 108.722 150.202 104.225C150.086 102.259 149.744 95.408 149.621 92.5766C149.403 87.6158 148.81 80.8351 144.62 78.0354C143.553 77.3325 142.315 76.935 141.039 76.8858C140.324 76.8422 139.606 76.9128 138.913 77.095C136.79 77.5868 134.856 78.6849 133.345 80.256C131.387 82.028 129.085 83.3758 126.582 84.2149C124.079 85.0539 121.431 85.3661 118.802 85.1319C115.87 85.0091 112.764 84.5505 109.203 84.3382C108.51 84.2972 107.815 84.254 107.12 84.2185C102.536 84.3389 98.1462 86.104 94.7517 89.1925C91.3572 92.2809 89.1832 96.4873 88.6256 101.046C86.5868 115.134 96.7453 122.415 99.6781 126.687C100.131 127.231 100.412 127.898 100.485 128.602C100.408 129.384 100.034 130.106 99.4413 130.62V130.624C95.3847 135.15 92.5336 140.627 91.1518 146.548C89.77 152.469 89.9022 158.644 91.5361 164.501C91.9238 165.907 92.4207 167.281 93.0221 168.61C100.435 186.007 123.429 194.108 145.894 186.739C148.835 185.775 151.69 184.564 154.428 183.119C159.348 180.678 163.778 177.352 167.498 173.309C173.284 167.487 177.091 159.988 178.379 151.876C179.056 147.392 178.066 145.657 176.716 144.823C175.761 144.29 174.658 144.088 173.578 144.247C173.005 140.725 172.002 137.288 170.589 134.012C164.173 138.86 156.921 142.483 149.194 144.7C139.898 147.33 130.226 148.38 120.583 147.807C114.379 147.304 110.275 145.485 108.731 150.524C118.115 153.666 128.079 154.684 137.904 153.504C137.973 153.497 138.043 153.503 138.11 153.523C138.176 153.543 138.238 153.576 138.292 153.62C138.346 153.665 138.39 153.719 138.423 153.78C138.456 153.841 138.476 153.909 138.483 153.978C138.493 154.094 138.467 154.211 138.409 154.312C138.35 154.413 138.262 154.493 138.155 154.542C138.155 154.542 126.632 159.915 108.332 154.231ZM74.5842 72.5318C82.2059 67.174 90.7997 63.359 99.8826 61.3014C110.129 58.9238 120.779 58.8951 131.038 61.2173C131.397 61.2999 131.626 60.6753 131.305 60.4947C125.981 57.7191 120.105 56.1721 114.106 55.967C114.048 55.966 113.992 55.949 113.943 55.9179C113.895 55.8869 113.855 55.8429 113.83 55.791C113.804 55.739 113.794 55.681 113.799 55.6234C113.804 55.5658 113.826 55.5107 113.86 55.4644C114.792 54.2397 115.88 53.143 117.097 52.2022C117.152 52.1596 117.191 52.1007 117.21 52.034C117.229 51.9673 117.226 51.8964 117.202 51.8316C117.178 51.7667 117.133 51.7113 117.075 51.6734C117.017 51.6355 116.949 51.6171 116.88 51.6208C109.534 52.348 102.475 54.8512 96.3094 58.9151C96.2567 58.9508 96.1945 58.9699 96.1309 58.9697C96.0672 58.9695 96.0051 58.9502 95.9526 58.9142C95.9001 58.8783 95.8597 58.8273 95.8365 58.7679C95.8133 58.7086 95.8085 58.6437 95.8227 58.5816C96.3193 56.7179 97.0506 54.9251 97.9991 53.2463C98.0306 53.1889 98.0428 53.1229 98.034 53.058C98.0252 52.9931 97.9958 52.9327 97.9502 52.8858C97.9046 52.8389 97.8451 52.8078 97.7806 52.7973C97.716 52.7867 97.6498 52.7971 97.5916 52.827C88.675 57.7552 80.7331 64.2739 74.1575 72.0618C74.106 72.1209 74.0779 72.1969 74.0787 72.2753C74.0795 72.3537 74.1091 72.4291 74.1617 72.4871C74.2144 72.5452 74.2866 72.5818 74.3645 72.59C74.4424 72.5982 74.5206 72.5775 74.5842 72.5318ZM134.301 120.355C134.922 120.749 135.665 120.9 136.39 120.779C137.115 120.658 137.77 120.275 138.23 119.702C138.802 118.593 137.971 117.089 136.374 116.343C135.753 115.949 135.009 115.799 134.285 115.92C133.56 116.04 132.905 116.424 132.445 116.998C131.872 118.106 132.704 119.609 134.301 120.355ZM139.2 102.379C139.583 104.375 140.41 106.259 141.619 107.891C142.868 107.738 144.132 107.738 145.381 107.891C146.111 105.701 146.175 103.342 145.565 101.115C144.662 97.0053 143.44 94.5181 140.915 94.9048C138.391 95.2922 138.298 98.2697 139.2 102.379ZM144.571 111.819C143.934 111.636 143.256 111.658 142.632 111.881C142.009 112.103 141.47 112.516 141.093 113.061C140.715 113.606 140.517 114.256 140.528 114.919C140.538 115.582 140.756 116.226 141.15 116.759C141.544 117.292 142.095 117.688 142.726 117.891C143.356 118.094 144.034 118.094 144.665 117.892C145.296 117.689 145.847 117.294 146.242 116.761C146.637 116.229 146.855 115.586 146.866 114.922C146.957 114.209 146.77 113.487 146.342 112.909C145.914 112.33 145.28 111.94 144.571 111.819Z" fill="black"/>
<path d="M102.656 111.453C102.253 111.396 102.082 111.223 102.031 110.995C101.875 110.286 102.964 109.119 104.112 108.277C105.787 107.051 107.749 106.276 109.809 106.029C111.87 105.781 113.959 106.068 115.877 106.863C117.668 107.603 119.209 108.844 120.314 110.439C120.724 111.109 120.804 111.629 120.538 111.901C120.125 112.338 119.071 111.838 117.355 111.084C115.293 110.071 113.015 109.58 110.72 109.653C108 110.101 105.308 110.702 102.656 111.453ZM119.761 114.979C119.019 114.198 118.096 113.614 117.074 113.279C116.051 112.943 114.962 112.867 113.903 113.056C112.341 113.222 110.861 113.84 109.644 114.834C109.076 115.241 108.687 115.851 108.554 116.538C108.551 116.614 108.565 116.69 108.594 116.76C108.624 116.831 108.668 116.894 108.725 116.945C108.826 117.037 108.957 117.087 109.093 117.085C109.655 117.003 110.204 116.85 110.728 116.631C113.023 115.766 115.501 115.508 117.925 115.883C119.047 116.009 119.578 116.08 119.824 115.694C119.888 115.582 119.915 115.454 119.904 115.326C119.893 115.199 119.843 115.077 119.761 114.979Z" fill="black"/>
<path d="M116.581 116.009C117.29 113.484 117.33 110.818 116.699 108.272C115.785 104.156 114.404 101.804 111.844 102.192C109.284 102.579 109.218 105.896 110.043 110.029C110.422 111.923 111.161 113.727 112.22 115.342C114.257 118.188 115.642 117.451 116.581 116.009Z" fill="black"/>
<path d="M280.512 119.645C266.434 119.645 266.189 135.036 262.857 135.036C262.163 135.036 261.612 134.423 261.612 133.579C261.612 132.455 261.904 131.481 261.904 129.663C261.904 124.14 258.021 119.645 249.88 119.645C242.97 119.645 237.91 123.112 234.822 129.52C233.258 132.768 233.394 135.029 231.81 135.029C231.225 135.029 230.769 134.478 230.769 133.681C230.769 131.325 232.843 129.173 232.843 124.113C232.843 122.799 232.741 121.688 232.531 120.783H219.146V172.77H237.318V144.563C237.318 139.006 239.699 135.445 243.759 135.445C246.452 135.445 248.846 137.801 248.846 142.112V172.77H267.019V144.563C267.019 138.318 269.902 135.445 273.459 135.445C276.438 135.445 278.547 138.203 278.547 142.112V172.77H296.508V140.852C296.508 126.905 290.979 119.639 280.519 119.639L280.512 119.645Z" fill="black"/>
<path d="M404.802 106.229H386.84V172.77H404.802V106.229Z" fill="black"/>
<path d="M410.726 146.156C410.726 163.842 422.158 174.023 436.998 174.023C445.506 174.023 452.008 170.652 456 167.37V150.215C451.961 152.98 445.744 156.14 439.072 156.14C430.748 156.14 426.402 152.68 426.402 146.681C426.402 140.681 431.414 137.324 438.76 137.324C445.411 137.324 451.512 139.973 455.994 143.044V124.848C452.199 122.022 445.499 119.543 436.991 119.543C421.063 119.543 410.719 129.513 410.719 146.163L410.726 146.156Z" fill="black"/>
<path d="M495.562 119.748C488.258 119.748 484.028 123.139 480.92 129.418C479.553 132.19 479.451 134.927 477.907 134.927C477.329 134.927 476.866 134.389 476.866 133.579C476.866 130.698 480.294 126.401 480.294 113.721C480.294 110.534 479.981 108.075 479.362 106.339H463.686V172.777H481.858V144.795C481.858 139.551 484.613 135.554 488.816 135.554C491.944 135.554 494.114 138.101 494.114 142.221V172.777H512.286V140.232C512.286 126.653 506.369 119.748 495.569 119.748H495.562Z" fill="black"/>
<path d="M662.325 119.543C654.293 119.543 650.192 124.126 647.9 128.362C646.084 131.712 645.819 134.934 644.261 134.934C643.499 134.934 643.118 134.484 643.118 133.585C643.118 131.992 645.193 129.288 645.193 124.855C645.193 123.05 645.05 121.702 644.778 120.803H631.176V186.097H649.45V165.585C651.769 170.543 656.625 173.825 663.263 173.825C675.233 173.825 683.408 163.937 683.408 146.688C683.408 130.773 675.832 119.55 662.332 119.55L662.325 119.543ZM657.442 161.86C653.776 161.86 649.756 158.054 649.756 148.445C649.756 140.075 653.041 135.138 657.442 135.138C662.502 135.138 665.331 140.021 665.331 148.445C665.331 157.808 662.073 161.86 657.442 161.86Z" fill="black"/>
<path d="M328.977 119.543C319.591 119.543 310.995 121.865 305.023 124.841V139.898C311.974 136.139 319.101 133.354 325.352 133.354C332.044 133.354 334.88 136.888 334.479 141.539C331.779 141.26 328.779 141.144 325.141 141.144C310.927 141.144 302.017 146.701 302.017 158.796C302.017 168.732 309.743 173.853 318.197 173.853C326.651 173.853 332.119 169.903 335.404 163.951C337.274 160.56 337.117 158.483 338.335 158.483C338.933 158.483 339.348 158.912 339.348 159.579C339.348 161.751 338.729 163.018 338.729 165.96C338.729 168.711 339.09 171.027 339.661 172.709H352.726V144.876C352.726 129.07 345.503 119.536 328.977 119.536V119.543ZM322.856 161.077C319.482 161.077 317.673 159.599 317.673 157.025C317.673 153.675 320.822 151.107 328.977 151.107C330.772 151.107 332.398 151.169 333.873 151.291C333.152 156.079 328.99 161.077 322.856 161.077Z" fill="black"/>
<path d="M393.764 71.7913V42.624H381.257V70.2999C381.257 77.1575 376.673 81.7407 370.654 81.7407C364.635 81.7407 360.051 77.1507 360.051 70.2999V42.624H347.564L347.632 71.7913C347.632 84.4919 357.786 93.7807 370.688 93.7807C383.589 93.7807 393.764 84.5123 393.764 71.7913Z" fill="black"/>
<path d="M442.065 92.7729H454.552V54.3372H469.453V42.624H427.15V54.3372H442.065V92.7729Z" fill="black"/>
<path d="M419.077 42.6445H406.591V92.7934H419.077V42.6445Z" fill="black"/>
<path d="M312.09 92.7729H324.576V54.3372H339.471V42.624H297.168V54.3372H312.09V92.7729Z" fill="black"/>
<path d="M231.633 67.7258V42.6445H219.146V92.7866H231.633V67.7258Z" fill="black"/>
<path d="M256.94 65.0971C256.94 58.2394 261.524 53.6563 267.543 53.6563C273.561 53.6563 278.145 58.2462 278.145 65.0971V92.7729H290.632L290.598 63.6057C290.591 50.8982 280.424 41.6162 267.522 41.6162C254.62 41.6162 244.446 50.8846 244.446 63.6057V92.7729H256.933V65.0971H256.94Z" fill="black"/>
<path d="M607.603 119.645C593.525 119.645 593.28 135.036 589.948 135.036C589.254 135.036 588.703 134.423 588.703 133.579C588.703 132.455 588.996 131.481 588.996 129.663C588.996 124.14 585.112 119.645 576.971 119.645C570.061 119.645 565.001 123.112 561.914 129.52C560.349 132.768 560.485 135.029 558.901 135.029C558.316 135.029 557.86 134.478 557.86 133.681C557.86 131.325 559.935 129.173 559.935 124.113C559.935 122.799 559.833 121.688 559.622 120.783H546.224V172.77H564.396V144.563C564.396 139.006 566.776 135.445 570.837 135.445C573.53 135.445 575.924 137.801 575.924 142.112V172.77H594.096V144.563C594.096 138.318 596.98 135.445 600.537 135.445C603.516 135.445 605.624 138.203 605.624 142.112V172.77H623.586V140.852C623.586 126.905 618.057 119.639 607.597 119.639L607.603 119.645Z" fill="black"/>
<path d="M528.996 124.426C525.188 124.426 522.175 123.875 519.965 122.765V172.777H537.926V122.765C535.593 123.793 532.819 124.426 528.996 124.426Z" fill="black"/>
<path d="M528.894 105.923C521.468 105.923 517.577 109.212 517.577 112.992C517.577 117.064 522.182 120.06 528.894 120.06C535.607 120.06 540.211 117.064 540.211 112.992C540.211 109.212 536.314 105.923 528.894 105.923Z" fill="black"/>
<path d="M369.865 124.426C366.056 124.426 363.043 123.875 360.833 122.765V172.777H378.795V122.765C376.462 123.793 373.687 124.426 369.865 124.426Z" fill="black"/>
<path d="M369.763 105.923C362.336 105.923 358.446 109.212 358.446 112.992C358.446 117.064 363.05 120.06 369.763 120.06C376.475 120.06 381.08 117.064 381.08 112.992C381.08 109.212 377.183 105.923 369.763 105.923Z" fill="black"/>
</svg>
