<svg width="696" height="284" viewBox="0 0 696 284" fill="none" xmlns="http://www.w3.org/2000/svg">
<g clip-path="url(#clip0_4997_3975)">
<path d="M159.64 281.331V210.084L161.125 208.597H175.974L177.46 210.084V281.331L175.974 282.818H161.125L159.64 281.331ZM159.64 72.7291V1.48575L161.125 0H175.974L177.46 1.48575V72.7291L175.974 74.2149H161.125L159.64 72.7291ZM95.0936 229.969H92.994L82.4963 219.471V217.371L107.01 192.873L118.126 192.878L119.618 194.358V205.471L95.0936 229.969ZM95.0831 52.8481H92.9836L82.4858 63.3471V65.4458L107 89.9451L118.116 89.9399L119.607 88.4593V77.3475L95.0831 52.8481ZM1.48633 132.502H102.458L103.944 133.988V148.83L102.458 150.316H1.48633L0 148.83V133.988L1.48633 132.502ZM599.483 132.502H694.518L696.005 133.988V148.83L694.518 150.316H593.548L592.061 148.83L597.996 133.988L599.483 132.502Z" fill="#05BDBA"/>
<path d="M288.263 147.744L286.778 149.23H240.717L239.231 150.715C239.231 153.687 242.204 162.596 254.089 162.596C258.548 162.596 263.001 161.111 264.488 158.139L265.974 156.654H283.805L285.291 158.139L285.194 158.679C283.502 167.578 275.933 180.42 254.089 180.42C228.832 180.42 216.941 162.596 216.941 141.805C216.941 121.016 228.826 103.192 252.602 103.192C276.378 103.192 288.263 121.016 288.263 141.805V147.744ZM264.488 134.377L265.974 132.891L265.965 132.653C265.827 130.534 263.979 121.011 252.602 121.011C240.717 121.011 239.231 131.406 239.231 132.891L240.717 134.377H264.488ZM329.866 156.654C329.866 159.624 331.352 161.111 334.325 161.111H347.695L349.182 162.596V177.448L347.695 178.935H334.325C320.952 178.935 309.067 172.991 309.067 156.654V123.977L307.58 122.491H297.182L295.695 121.005V106.153L297.182 104.667H307.58L309.067 103.182V89.815L310.553 88.3292H328.384L329.87 89.815V103.182L331.357 104.667H347.701L349.188 106.153V121.005L347.701 122.491H331.357L329.87 123.977V156.654H329.866ZM384.839 178.935H367.008L365.521 177.448V76.4535L367.008 74.9678H384.839L386.325 76.4535V177.448L384.839 178.935ZM424.954 92.7917H407.123L405.636 91.3059V76.4535L407.123 74.9678H424.954L426.44 76.4535V91.3059L424.954 92.7917ZM424.954 178.935H407.123L405.636 177.448V106.158L407.123 104.673H424.954L426.44 106.158V177.448L424.954 178.935ZM494.785 76.4535V91.3059L493.298 92.7917H479.927C476.954 92.7917 475.467 94.2775 475.467 97.2489V103.192L476.954 104.678H491.812L493.298 106.163V121.016L491.812 122.501H476.954L475.467 123.987V177.453L473.981 178.939H456.15L454.665 177.453V123.987L453.177 122.501H442.78L441.292 121.016V106.163L442.78 104.678H453.177L454.665 103.192V97.2489C454.665 81.0865 466.295 75.0968 479.491 74.9698L493.293 74.9678L494.78 76.4535H494.785ZM549.764 180.414L549.195 181.809C543.422 195.826 537.216 204.182 517.069 204.182H509.638L508.152 202.696V187.843L509.638 186.358H517.069L517.932 186.351C524.615 186.234 526.041 184.693 527.469 180.414V178.929L503.697 121.005V106.153L505.184 104.667H518.555L520.042 106.153L537.873 156.654H539.359L557.19 106.153L558.676 104.667H572.048L573.534 106.153V121.005L549.764 180.414ZM184.133 178.935L182.647 177.448L182.656 134.413C182.656 126.99 179.736 121.234 170.771 121.047C166.162 120.927 160.887 121.037 155.253 121.276L154.411 122.138L154.422 177.448L152.935 178.935H135.11L133.624 177.448V105.363L135.11 103.878L175.225 103.514C195.322 103.514 203.455 117.317 203.455 132.897V177.448L201.969 178.935H184.133Z" fill="#014847"/>
</g>
<defs>
<clipPath id="clip0_4997_3975">
<rect width="696" height="284" fill="white"/>
</clipPath>
</defs>
</svg>
