<svg width="89" height="100" viewBox="0 0 89 100" fill="none" xmlns="http://www.w3.org/2000/svg">
<g clip-path="url(#clip0_5047_3860)">
<path d="M44.5 99.8145C43.118 99.8145 41.8282 99.4477 40.6304 98.8058L28.3768 91.5615C26.5342 90.5528 27.4555 90.1861 28.0083 90.0027C30.4959 89.1774 30.9565 88.994 33.5362 87.5268C33.8126 87.3434 34.1812 87.4351 34.4576 87.6185L43.8551 93.2121C44.2236 93.3955 44.6843 93.3955 44.9607 93.2121L81.7215 72.0296C82.0901 71.8462 82.2743 71.4794 82.2743 71.0209V28.7477C82.2743 28.2892 82.0901 27.9224 81.7215 27.739L44.9607 6.64818C44.5921 6.46479 44.1315 6.46479 43.8551 6.64818L7.0942 27.739C6.72567 27.9224 6.54141 28.3809 6.54141 28.7477V71.0209C6.54141 71.3877 6.72567 71.8462 7.0942 72.0296L17.1366 77.8067C22.5725 80.5577 25.9814 77.3482 25.9814 74.1387V32.4156C25.9814 31.8654 26.442 31.3152 27.087 31.3152H31.7857C32.3385 31.3152 32.8913 31.7737 32.8913 32.4156V74.1387C32.8913 81.3829 28.9296 85.6011 22.0197 85.6011C19.9006 85.6011 18.2422 85.6011 13.5435 83.3086L3.86957 77.8067C1.47412 76.4312 0 73.8636 0 71.1126V28.8394C0 26.0884 1.47412 23.5208 3.86957 22.1453L40.6304 0.96284C42.9337 -0.320947 46.0663 -0.320947 48.3696 0.96284L85.1304 22.1453C87.5259 23.5208 89 26.0884 89 28.8394V71.1126C89 73.8636 87.5259 76.4312 85.1304 77.8067L48.3696 98.9892C47.1718 99.5394 45.7899 99.8145 44.5 99.8145ZM55.8323 70.7458C39.7091 70.7458 36.3923 63.4099 36.3923 57.1744C36.3923 56.6242 36.853 56.074 37.4979 56.074H42.2888C42.8416 56.074 43.3023 56.4408 43.3023 56.991C44.0393 61.851 46.1584 64.2352 55.9244 64.2352C63.6636 64.2352 66.9803 62.4929 66.9803 58.3665C66.9803 55.9823 66.059 54.24 53.9896 53.0479C43.9472 52.0392 37.6822 49.8385 37.6822 41.8606C37.6822 34.433 43.9472 30.0315 54.4503 30.0315C66.2433 30.0315 72.0476 34.0662 72.7847 42.8693C72.7847 43.1444 72.6925 43.4195 72.5083 43.6946C72.324 43.878 72.0476 44.0614 71.7712 44.0614H66.9803C66.5197 44.0614 66.059 43.6946 65.9669 43.2361C64.8613 38.1927 62.0052 36.5421 54.4503 36.5421C45.9741 36.5421 44.9607 39.4765 44.9607 41.6772C44.9607 44.3365 46.1584 45.1618 57.5828 46.629C68.9151 48.0962 74.2588 50.2053 74.2588 58.0914C74.1667 66.1609 67.5331 70.7458 55.8323 70.7458Z" fill="#539E43"/>
</g>
<defs>
<clipPath id="clip0_5047_3860">
<rect width="89" height="100" fill="white"/>
</clipPath>
</defs>
</svg>
