<svg width="50" height="57" viewBox="0 0 50 57" fill="none" xmlns="http://www.w3.org/2000/svg">
<g id="Frame" clip-path="url(#clip0_437_901)">
<path id="Vector" d="M25 56.3406C24.2236 56.3406 23.499 56.1335 22.8261 55.7712L15.942 51.6822C14.9068 51.1128 15.4244 50.9058 15.735 50.8023C17.1325 50.3364 17.3913 50.2329 18.8406 49.4048C18.9959 49.3012 19.2029 49.353 19.3582 49.4565L24.6377 52.6139C24.8447 52.7174 25.1035 52.7174 25.2588 52.6139L45.911 40.6573C46.118 40.5538 46.2215 40.3468 46.2215 40.088V16.2267C46.2215 15.9679 46.118 15.7609 45.911 15.6574L25.2588 3.75259C25.0518 3.64907 24.793 3.64907 24.6377 3.75259L3.98551 15.6574C3.77847 15.7609 3.67495 16.0197 3.67495 16.2267V40.088C3.67495 40.295 3.77847 40.5538 3.98551 40.6573L9.62733 43.9182C12.6812 45.471 14.5963 43.6594 14.5963 41.8478V18.2971C14.5963 17.9865 14.8551 17.676 15.2174 17.676H17.8571C18.1677 17.676 18.4783 17.9348 18.4783 18.2971V41.8478C18.4783 45.9369 16.2526 48.3178 12.3706 48.3178C11.1801 48.3178 10.2484 48.3178 7.6087 47.0238L2.17391 43.9182C0.828157 43.1418 0 41.6925 0 40.1398V16.2785C0 14.7257 0.828157 13.2764 2.17391 12.5L22.8261 0.543478C24.1201 -0.181159 25.8799 -0.181159 27.1739 0.543478L47.8261 12.5C49.1718 13.2764 50 14.7257 50 16.2785V40.1398C50 41.6925 49.1718 43.1418 47.8261 43.9182L27.1739 55.8747C26.501 56.1853 25.7246 56.3406 25 56.3406ZM31.3665 39.9327C22.3085 39.9327 20.4451 35.7919 20.4451 32.2723C20.4451 31.9617 20.7039 31.6511 21.0663 31.6511H23.7578C24.0683 31.6511 24.3271 31.8582 24.3271 32.1687C24.7412 34.912 25.9317 36.2578 31.4182 36.2578C35.766 36.2578 37.6294 35.2743 37.6294 32.9451C37.6294 31.5994 37.1118 30.6159 30.3313 29.9431C24.6894 29.3737 21.1698 28.1315 21.1698 23.6284C21.1698 19.4358 24.6894 16.9513 30.5901 16.9513C37.2153 16.9513 40.4762 19.2288 40.8903 24.1977C40.8903 24.353 40.8385 24.5083 40.735 24.6636C40.6315 24.7671 40.4762 24.8706 40.3209 24.8706H37.6294C37.3706 24.8706 37.1118 24.6636 37.06 24.4048C36.4389 21.558 34.8344 20.6263 30.5901 20.6263C25.8282 20.6263 25.2588 22.2826 25.2588 23.5248C25.2588 25.0259 25.9317 25.4917 32.3499 26.3199C38.7164 27.148 41.7184 28.3385 41.7184 32.7899C41.6667 37.3447 37.94 39.9327 31.3665 39.9327Z" fill="#539E43"/>
</g>
<defs>
<clipPath id="clip0_437_901">
<rect width="50" height="56.4453" fill="white"/>
</clipPath>
</defs>
</svg>
