<svg width="827" height="217" viewBox="0 0 827 217" fill="none" xmlns="http://www.w3.org/2000/svg">
<g clip-path="url(#clip0_4996_3834)">
<path fill-rule="evenodd" clip-rule="evenodd" d="M640.158 95.5968C637.68 113.104 625.252 113.104 613.231 113.104H606.391L611.189 80.4178C611.479 78.4429 613.062 76.9875 614.922 76.9875H618.057C626.238 76.9875 633.968 76.9875 637.953 82.0026C640.337 85.0033 641.058 89.4507 640.158 95.5968ZM634.925 49.9238H589.59C586.491 49.9238 583.853 52.3503 583.37 55.6447L565.039 180.7C564.676 183.166 566.449 185.398 568.772 185.398H592.031C594.201 185.398 596.049 183.699 596.385 181.393L601.585 145.941C602.067 142.646 604.706 140.22 607.805 140.22H622.151C652.011 140.22 669.244 124.673 673.749 93.8609C675.776 80.3849 673.83 69.7958 667.965 62.3827C661.518 54.2331 650.092 49.9238 634.925 49.9238Z" fill="#2790C3"/>
<path fill-rule="evenodd" clip-rule="evenodd" d="M316.821 95.5968C314.343 113.104 301.915 113.104 289.896 113.104H283.056L287.852 80.4178C288.144 78.4429 289.727 76.9875 291.585 76.9875H294.72C302.903 76.9875 310.633 76.9875 314.616 82.0026C317.002 85.0033 317.723 89.4507 316.821 95.5968ZM311.591 49.9238H266.255C263.156 49.9238 260.518 52.3503 260.035 55.6447L241.702 180.7C241.341 183.166 243.114 185.398 245.435 185.398H267.08C270.179 185.398 272.82 182.971 273.303 179.679L278.25 145.941C278.731 142.646 281.371 140.22 284.47 140.22H298.816C328.675 140.22 345.909 124.673 350.414 93.8609C352.441 80.3849 350.496 69.7958 344.63 62.3827C338.181 54.2331 326.755 49.9238 311.591 49.9238Z" fill="#27346A"/>
<path fill-rule="evenodd" clip-rule="evenodd" d="M416.835 140.491C414.739 153.836 404.892 162.794 392.333 162.794C386.037 162.794 380.996 160.615 377.757 156.49C374.546 152.4 373.338 146.574 374.354 140.086C376.31 126.862 386.314 117.614 398.681 117.614C404.847 117.614 409.851 119.815 413.156 123.977C416.481 128.17 417.787 134.036 416.835 140.491ZM447.087 95.0374H425.38C423.52 95.0374 421.937 96.4906 421.648 98.4699L420.692 105L419.174 102.632C414.474 95.2916 403.997 92.8389 393.535 92.8389C369.552 92.8389 349.066 112.391 345.078 139.814C343.002 153.494 345.948 166.566 353.159 175.691C359.783 184.075 369.236 187.565 380.499 187.565C399.831 187.565 410.552 174.205 410.552 174.205L409.582 180.695C409.219 183.163 410.992 185.397 413.314 185.397H432.864C435.963 185.397 438.601 182.973 439.084 179.678L450.82 99.7346C451.182 97.2665 449.41 95.0374 447.087 95.0374Z" fill="#27346A"/>
<path fill-rule="evenodd" clip-rule="evenodd" d="M740.17 140.491C738.074 153.836 728.229 162.794 715.67 162.794C709.372 162.794 704.333 160.615 701.092 156.49C697.881 152.4 696.673 146.574 697.691 140.086C699.645 126.862 709.649 117.614 722.018 117.614C728.182 117.614 733.188 119.815 736.49 123.977C739.816 128.17 741.122 134.036 740.17 140.491ZM770.422 95.0374H748.715C746.855 95.0374 745.272 96.4906 744.983 98.4699L744.027 105L742.511 102.632C737.809 95.2916 727.332 92.8389 716.87 92.8389C692.889 92.8389 672.4 112.391 668.413 139.814C666.339 153.494 669.285 166.566 676.494 175.691C683.12 184.075 692.571 187.565 703.834 187.565C723.166 187.565 733.887 174.205 733.887 174.205L732.919 180.695C732.554 183.163 734.327 185.397 736.651 185.397H756.199C759.298 185.397 761.936 182.973 762.421 179.678L774.155 99.7346C774.517 97.2665 772.745 95.0374 770.422 95.0374Z" fill="#2790C3"/>
<mask id="mask0_4996_3834" style="mask-type:luminance" maskUnits="userSpaceOnUse" x="0" y="1" width="825" height="216">
<path d="M0.12207 217H824.461V1.7998H0.12207V217Z" fill="white"/>
</mask>
<g mask="url(#mask0_4996_3834)">
<path fill-rule="evenodd" clip-rule="evenodd" d="M562.702 95.0371H540.883C538.797 95.0371 536.845 96.1506 535.673 98.0072L505.576 145.697L492.82 99.8703C492.023 97.0033 489.57 95.0371 486.787 95.0371H465.339C462.749 95.0371 460.926 97.777 461.761 100.414L485.787 176.281L463.189 210.584C461.415 213.276 463.206 217 466.272 217H488.071C490.137 217 492.07 215.91 493.248 214.082L565.809 101.42C567.545 98.7239 565.752 95.0371 562.702 95.0371Z" fill="#27346A"/>
</g>
<mask id="mask1_4996_3834" style="mask-type:luminance" maskUnits="userSpaceOnUse" x="0" y="1" width="825" height="216">
<path d="M0.12207 217H824.461V1.7998H0.12207V217Z" fill="white"/>
</mask>
<g mask="url(#mask1_4996_3834)">
<path fill-rule="evenodd" clip-rule="evenodd" d="M796.008 53.3586L777.402 180.7C777.042 183.168 778.814 185.398 781.135 185.398H799.849C802.948 185.398 805.586 182.971 806.069 179.679L824.414 54.6233C824.777 52.1552 823.004 49.9238 820.682 49.9238H799.741C797.881 49.9238 796.297 51.3815 796.008 53.3586Z" fill="#2790C3"/>
</g>
<mask id="mask2_4996_3834" style="mask-type:luminance" maskUnits="userSpaceOnUse" x="0" y="1" width="825" height="216">
<path d="M0.12207 217H824.461V1.7998H0.12207V217Z" fill="white"/>
</mask>
<g mask="url(#mask2_4996_3834)">
<path fill-rule="evenodd" clip-rule="evenodd" d="M85.8821 208.134L91.9761 166.562L92.3694 164.258C92.6627 162.255 93.6163 160.423 95.0527 159.103C96.4891 157.784 98.3207 157.056 100.209 157.056H105.048C113.115 157.056 120.525 156.129 127.075 154.301C134.064 152.352 140.28 149.316 145.549 145.285C151.135 141.011 155.828 135.485 159.497 128.866C163.368 121.882 166.211 113.474 167.946 103.878C169.481 95.4037 169.768 87.8175 168.804 81.3272C167.783 74.4709 165.328 68.6206 161.508 63.9343C159.192 61.0958 156.227 58.6364 152.698 56.6243L152.615 56.576L152.613 56.4664C153.845 48.0078 153.798 40.952 152.472 34.8782C151.14 28.7913 148.442 23.3137 144.218 18.1363C135.467 7.40909 119.551 1.96875 96.9129 1.96875H34.7401C32.662 1.96875 30.6449 2.7688 29.0638 4.22204C27.4828 5.67529 26.4355 7.69404 26.1095 9.9035L0.221711 186.513C-0.0146325 188.124 0.415269 189.761 1.40139 190.998C2.38752 192.24 3.82188 192.953 5.33774 192.953H43.9087L43.874 193.15L41.2253 211.22C41.0216 212.625 41.3965 214.05 42.2543 215.129C43.112 216.209 44.361 216.832 45.6812 216.832H78.0318C79.8472 216.832 81.6055 216.132 82.9849 214.863C84.3642 213.594 85.2811 211.834 85.5643 209.907L85.8821 208.134Z" fill="#27346A"/>
</g>
<mask id="mask3_4996_3834" style="mask-type:luminance" maskUnits="userSpaceOnUse" x="0" y="1" width="825" height="216">
<path d="M0.12207 217H824.461V1.7998H0.12207V217Z" fill="white"/>
</mask>
<g mask="url(#mask3_4996_3834)">
<path fill-rule="evenodd" clip-rule="evenodd" d="M63.7189 56.6964C64.1284 53.8973 65.7971 51.6068 68.0444 50.4473C69.0672 49.9212 70.2081 49.6275 71.4041 49.6275H120.138C125.912 49.6275 131.295 50.0352 136.217 50.8878C137.623 51.1311 138.99 51.4117 140.321 51.7295C141.651 52.0474 142.941 52.4003 144.19 52.7948C144.815 52.9899 145.429 53.1959 146.034 53.4129C148.45 54.2765 150.7 55.2936 152.77 56.4728C155.21 39.7332 152.753 28.3418 144.337 18.0244C135.07 6.66586 118.331 1.7998 96.913 1.7998H34.7403C30.3638 1.7998 26.6373 5.22577 25.9548 9.87703L0.0669718 186.487C-0.444428 189.972 2.0596 193.121 5.33785 193.121H43.7193L63.7189 56.6964Z" fill="#27346A"/>
</g>
<path fill-rule="evenodd" clip-rule="evenodd" d="M152.77 56.4727C152.584 57.7505 152.378 59.0504 152.134 60.3896C143.937 105.677 115.886 121.334 80.0592 121.334H61.8159C57.4394 121.334 53.7435 124.762 53.061 129.413L41.0706 211.196C40.6244 214.243 42.8146 217 45.6813 217H78.034C81.8623 217 85.1222 214.004 85.7192 209.933L86.0371 208.164L92.1311 166.588L92.5243 164.291C93.1213 160.221 96.3812 157.224 100.21 157.224H105.048C136.391 157.224 160.932 143.525 168.103 103.908C171.098 87.3546 169.55 73.5367 161.626 63.8222C159.23 60.885 156.247 58.4542 152.77 56.4727Z" fill="#2790C3"/>
<path fill-rule="evenodd" clip-rule="evenodd" d="M144.19 52.7953C142.941 52.4007 141.651 52.0478 140.321 51.73C138.99 51.4122 137.623 51.1316 136.217 50.8883C131.295 50.0356 125.912 49.6279 120.138 49.6279H71.4042C70.2082 49.6279 69.0672 49.9216 68.0444 50.4477C65.7971 51.6072 64.1285 53.8978 63.7189 56.6969L53.3605 127.351L53.061 129.414C53.7436 124.763 57.4395 121.334 61.8159 121.334H80.0592C115.886 121.334 143.937 105.678 152.134 60.3903C152.378 59.051 152.584 57.7512 152.77 56.4733C150.7 55.294 148.45 54.277 146.034 53.4134C145.429 53.1964 144.815 52.9903 144.19 52.7953Z" fill="#1F264F"/>
</g>
<defs>
<clipPath id="clip0_4996_3834">
<rect width="827" height="217" fill="white"/>
</clipPath>
</defs>
</svg>
