<svg width="58" height="58" viewBox="0 0 58 58" fill="none" xmlns="http://www.w3.org/2000/svg">
<g id="Frame">
<g id="Group">
<path id="Vector" d="M53.1489 35.3095C46.6152 36.6572 46.166 34.445 46.166 34.445C53.0646 24.2087 55.9484 11.2151 53.4597 8.03501C46.6704 -0.639704 34.9176 3.46288 34.7215 3.56939L34.6584 3.58069C33.3675 3.31272 31.9229 3.15309 30.2993 3.12659C27.3428 3.07814 25.1003 3.90164 23.3986 5.1921C23.3986 5.1921 2.4329 -3.44494 3.40799 16.0548C3.61542 20.2032 9.35384 47.4437 16.1984 39.2158C18.7001 36.2071 21.1172 33.6632 21.1172 33.6632C22.3178 34.4608 23.755 34.8676 25.2617 34.7215L25.3788 34.6221C25.3424 34.9957 25.359 35.361 25.4257 35.7936C23.6624 37.7636 24.1805 38.1095 20.6557 38.8351C17.0891 39.5701 19.1843 40.8788 20.5523 41.2208C22.2108 41.6355 26.0476 42.223 28.6401 38.5939L28.5367 39.008C29.2275 39.5613 29.7127 42.6073 29.6314 45.3685C29.5501 48.1299 29.4958 50.0256 30.0401 51.5064C30.5845 52.9871 31.1271 56.3188 35.7608 55.3259C39.6327 54.4962 41.6391 52.346 41.9182 48.7593C42.1163 46.2095 42.5645 46.5864 42.5928 44.3067L42.9524 43.2274C43.367 39.7709 43.0182 38.6558 45.4037 39.1745L45.9834 39.2254C47.7391 39.3053 50.037 38.943 51.3856 38.3162C54.2897 36.9684 56.0121 34.7182 53.1486 35.3095H53.1489Z" fill="#336791"/>
<path id="Vector_2" d="M24.6231 17.9114C24.0345 17.8294 23.5011 17.9053 23.2313 18.1094C23.0795 18.2244 23.0326 18.3575 23.02 18.4492C22.9861 18.692 23.1563 18.9604 23.2607 19.0988C23.5563 19.4907 23.9883 19.7601 24.4159 19.8195C24.4779 19.828 24.5395 19.8322 24.6008 19.8322C25.3139 19.8322 25.962 19.277 26.0192 18.8672C26.0906 18.354 25.3456 18.0119 24.6231 17.9114Z" fill="white"/>
<path id="Vector_3" d="M44.1266 17.9263C44.0705 17.5241 43.3544 17.4094 42.6751 17.5038C41.9968 17.5983 41.3389 17.9045 41.3938 18.3077C41.438 18.6212 42.0039 19.1565 42.6742 19.1564C42.7307 19.1564 42.7878 19.1526 42.8454 19.1446C43.2927 19.0826 43.6209 18.7985 43.7768 18.6347C44.0144 18.3854 44.1517 18.1071 44.1266 17.9263Z" fill="white"/>
<path id="Vector_4" d="M55.3195 35.1578C55.0704 34.4044 54.2686 34.1619 52.9363 34.4372C48.9806 35.2535 47.564 34.688 47.0988 34.3455C50.1735 29.6614 52.7029 23.9996 54.0674 18.7168C54.7138 16.2145 55.0709 13.8906 55.1 11.9966C55.1322 9.91729 54.7783 8.38965 54.0479 7.45639C51.1034 3.694 46.7821 1.67589 41.551 1.62043C37.9549 1.58003 34.9165 2.50044 34.3274 2.75918C33.087 2.45069 31.7347 2.26131 30.2627 2.23715C27.5629 2.19351 25.2294 2.83984 23.2973 4.15718C22.4581 3.84493 20.2892 3.1004 17.637 2.67319C13.0513 1.93476 9.40751 2.4942 6.80711 4.33643C3.70429 6.53469 2.27186 10.4641 2.54944 16.0154C2.64283 17.8832 3.70689 23.6286 5.38637 29.131C7.59697 36.3731 9.99981 40.4729 12.5282 41.3162C12.8241 41.4149 13.1655 41.484 13.5417 41.484C14.464 41.484 15.5947 41.0682 16.7712 39.6538C18.7254 37.3028 20.55 35.3328 21.2226 34.6169C22.2165 35.1505 23.3082 35.4484 24.4251 35.4782C24.4271 35.5075 24.4301 35.5367 24.4327 35.5658C24.2086 35.8315 24.0248 36.0644 23.8682 36.2633C23.0944 37.2455 22.9334 37.45 20.4426 37.9629C19.7342 38.109 17.8522 38.4969 17.8248 39.8159C17.7948 41.2571 20.049 41.8623 20.3059 41.9265C21.201 42.1506 22.0632 42.2611 22.8856 42.2611C24.8856 42.261 26.6455 41.6037 28.0521 40.332C28.0087 45.4698 28.223 50.5325 28.8398 52.0751C29.345 53.3377 30.5793 56.4239 34.4782 56.4237C35.0502 56.4237 35.68 56.3572 36.3727 56.2087C40.4416 55.3362 42.2085 53.5379 42.8921 49.5731C43.2579 47.4542 43.8857 42.3942 44.1808 39.6802C44.8039 39.8745 45.6061 39.9635 46.4732 39.9633C48.2818 39.9633 50.3686 39.5791 51.6774 38.9716C53.1475 38.2889 55.8006 36.6133 55.3195 35.1578ZM45.6296 16.8173C45.6161 17.6186 45.5058 18.346 45.3889 19.1053C45.2632 19.9219 45.133 20.7662 45.1003 21.7912C45.0679 22.7886 45.1925 23.8257 45.313 24.8284C45.5564 26.8539 45.8062 28.9393 44.8392 30.997C44.6889 30.7301 44.5438 30.4389 44.4108 30.1164C44.2907 29.825 44.0297 29.357 43.6685 28.7093C42.2626 26.1881 38.9704 20.2841 40.6557 17.8749C41.1576 17.1576 42.4316 16.4205 45.6296 16.8173ZM41.7533 3.24302C46.4402 3.34654 50.1477 5.09993 52.7728 8.45421C54.7861 11.0271 52.5691 22.7341 46.1511 32.8337C46.0877 32.7531 46.0231 32.6718 45.9564 32.5884C45.9298 32.5551 45.9026 32.5212 45.8752 32.4869C47.5336 29.7479 47.2093 27.038 46.9207 24.6353C46.8021 23.6493 46.6901 22.718 46.7186 21.8433C46.7481 20.9159 46.8707 20.1208 46.9891 19.3519C47.135 18.4042 47.2832 17.4238 47.2423 16.2679C47.2728 16.1467 47.2852 16.0034 47.2692 15.8334C47.1647 14.7249 45.8994 11.4079 43.32 8.40524C41.9093 6.76317 39.8517 4.92535 37.0424 3.68581C38.2508 3.43538 39.9032 3.20184 41.7533 3.24302ZM15.5262 38.6186C14.2301 40.177 13.3349 39.8784 13.0405 39.7803C11.1224 39.1405 8.89704 35.0868 6.93492 28.6584C5.23713 23.0961 4.24489 17.5029 4.16644 15.9345C3.91848 10.9742 5.12087 7.51718 7.74037 5.65949C12.0034 2.6363 19.0122 4.4458 21.8285 5.3636C21.788 5.40348 21.7459 5.44089 21.7058 5.48141C17.0844 10.1488 17.194 18.123 17.2053 18.6103C17.2049 18.7984 17.2207 19.0647 17.2423 19.431C17.3218 20.7721 17.4698 23.2683 17.0745 26.0952C16.7071 28.7221 17.5168 31.2933 19.2958 33.1494C19.48 33.3415 19.6722 33.522 19.8708 33.6917C19.0789 34.5398 17.358 36.415 15.5262 38.6186ZM20.4648 32.0291C19.0309 30.5332 18.3798 28.4522 18.678 26.3194C19.0955 23.3331 18.9413 20.7323 18.8586 19.3351C18.847 19.1396 18.8368 18.9683 18.8306 18.8331C19.5058 18.2345 22.6345 16.5581 24.8656 17.0693C25.8839 17.3026 26.5042 17.9958 26.7621 19.1885C28.0971 25.3625 26.9389 27.9359 26.0082 30.0038C25.8164 30.4298 25.6352 30.8325 25.4804 31.2491L25.3605 31.5711C25.0568 32.3854 24.7743 33.1424 24.5992 33.8614C23.0751 33.8567 21.5922 33.2057 20.4648 32.0291ZM20.6987 40.3557C20.2537 40.2446 19.8534 40.0514 19.6186 39.8913C19.8147 39.7989 20.1638 39.6734 20.7693 39.5487C23.6994 38.9454 24.1519 38.5197 25.1401 37.265C25.3667 36.9774 25.6235 36.6513 25.9791 36.2541L25.9795 36.2536C26.5094 35.6605 26.7516 35.761 27.191 35.9432C27.5472 36.0907 27.894 36.537 28.0347 37.0282C28.1012 37.2602 28.176 37.7007 27.9314 38.0432C25.8671 40.9335 22.8591 40.8963 20.6987 40.3557ZM36.0333 54.6256C32.4487 55.3936 31.1796 53.5647 30.3432 51.4738C29.8034 50.1239 29.5381 44.0368 29.7263 37.3149C29.7288 37.2254 29.7161 37.139 29.6914 37.0578C29.67 36.9011 29.637 36.7425 29.5913 36.5828C29.3112 35.6047 28.6292 34.7866 27.8109 34.4474C27.4857 34.3127 26.8889 34.0656 26.1718 34.249C26.3248 33.6189 26.59 32.9075 26.8775 32.1369L26.9981 31.8127C27.134 31.4474 27.3043 31.0689 27.4846 30.6683C28.4585 28.5046 29.7923 25.5411 28.3447 18.8462C27.8024 16.3387 25.9917 15.1142 23.2468 15.3985C21.6011 15.5688 20.0956 16.2328 19.3448 16.6135C19.1833 16.6953 19.0356 16.7743 18.8977 16.8513C19.1072 14.3247 19.8991 9.60309 22.8611 6.61574C24.726 4.73494 27.2097 3.80609 30.2359 3.8561C36.1985 3.95378 40.0221 7.01373 42.18 9.5636C44.0393 11.761 45.0462 13.9743 45.4481 15.168C42.4262 14.8608 40.371 15.4574 39.329 16.9468C37.0624 20.1868 40.5691 26.4756 42.2544 29.4978C42.5634 30.0518 42.8302 30.5305 42.9141 30.7339C43.4629 32.0639 44.1734 32.9519 44.6922 33.6002C44.8511 33.7988 45.0055 33.9914 45.1227 34.1596C44.2075 34.4235 42.5635 35.0331 42.7133 38.0805C42.5925 39.6097 41.7331 46.7687 41.2967 49.298C40.7205 52.6396 39.4908 53.8843 36.0333 54.6256ZM50.9956 37.5031C50.0597 37.9376 48.4935 38.2635 47.0056 38.3334C45.3623 38.4104 44.5258 38.1493 44.329 37.9888C44.2365 36.0898 44.9435 35.8913 45.6915 35.6813C45.8091 35.6481 45.9238 35.6161 46.0344 35.5773C46.1033 35.6333 46.1786 35.6889 46.2611 35.7433C47.582 36.6152 49.9379 36.7092 53.2637 36.0227C53.2759 36.0201 53.2882 36.0178 53.3002 36.0153C52.8517 36.4347 52.0841 36.9977 50.9956 37.5031Z" fill="white"/>
</g>
</g>
</svg>
