<svg width="100" height="100" viewBox="0 0 100 100" fill="none" xmlns="http://www.w3.org/2000/svg">
<path d="M91.6335 60.8785C80.3684 63.2022 79.594 59.3882 79.594 59.3882C91.4881 41.7392 96.4602 19.3366 92.1694 13.8536C80.4636 -1.10278 60.2003 5.97064 59.8621 6.15427L59.7533 6.17376C57.5277 5.71175 55.0369 5.43652 52.2376 5.39083C47.1403 5.3073 43.2738 6.72713 40.3398 8.95206C40.3398 8.95206 4.1921 -5.93939 5.87328 27.6809C6.23093 34.8333 16.1247 81.7996 27.9257 67.6136C32.239 62.4263 36.4064 58.0402 36.4064 58.0402C38.4764 59.4153 40.9544 60.1167 43.5522 59.8647L43.7539 59.6934C43.6912 60.3375 43.7199 60.9675 43.8348 61.7132C40.7947 65.1098 41.688 65.7062 35.6107 66.9572C29.4613 68.2245 33.0738 70.4808 35.4325 71.0704C38.2918 71.7855 44.9071 72.7984 49.3768 66.5413L49.1986 67.2553C50.3898 68.2093 51.2262 73.4611 51.086 78.2218C50.9458 82.9827 50.8522 86.2512 51.7908 88.8043C52.7293 91.3573 53.6648 97.1015 61.6539 95.3897C68.3296 93.9591 71.7889 90.2519 72.2702 84.068C72.6117 79.6716 73.3846 80.3215 73.4334 76.391L74.0533 74.5302C74.7681 68.5707 74.1668 66.6481 78.2796 67.5424L79.2791 67.6301C82.3062 67.7679 86.2681 67.1433 88.5934 66.0625C93.6004 63.7388 96.57 59.8591 91.633 60.8785H91.6335Z" fill="#336791"/>
<path d="M42.4512 30.8816C41.4363 30.7403 40.5168 30.8711 40.0516 31.2232C39.7898 31.4214 39.709 31.6509 39.6873 31.809C39.6288 32.2276 39.9222 32.6903 40.1022 32.929C40.6119 33.6046 41.3568 34.0691 42.094 34.1715C42.2009 34.1862 42.307 34.1934 42.4127 34.1934C43.6422 34.1934 44.7597 33.2362 44.8582 32.5297C44.9814 31.6449 43.6968 31.055 42.4512 30.8816Z" fill="white"/>
<path d="M95.3771 60.617C94.9476 59.3181 93.5652 58.9 91.2681 59.3746C84.448 60.7821 82.0056 59.807 81.2034 59.2164C86.5047 51.1404 90.8657 41.3787 93.2183 32.2705C94.3329 27.9562 94.9485 23.9495 94.9986 20.6839C95.0542 17.0989 94.4439 14.465 93.1847 12.856C88.108 6.36909 80.6574 2.8896 71.6384 2.79397C65.4381 2.72432 60.1995 4.31122 59.1839 4.75733C57.0452 4.22545 54.7137 3.89893 52.1757 3.85728C47.5209 3.78203 43.4977 4.8964 40.1664 7.16769C38.7195 6.62931 34.98 5.34564 30.4072 4.60907C22.5009 3.33593 16.2185 4.30047 11.735 7.47673C6.38536 11.2668 3.91566 18.0417 4.39424 27.6128C4.55526 30.8332 6.38984 40.7391 9.2855 50.226C13.0969 62.7123 17.2397 69.781 21.5991 71.2349C22.1092 71.4051 22.6978 71.5242 23.3463 71.5242C24.9366 71.5242 26.8861 70.8073 28.9146 68.3688C32.2839 64.3153 35.4297 60.9187 36.5893 59.6845C38.303 60.6045 40.1852 61.118 42.111 61.1695C42.1143 61.2199 42.1195 61.2703 42.124 61.3204C41.7377 61.7786 41.4208 62.1802 41.1507 62.523C39.8166 64.2165 39.5389 64.569 35.2445 65.4534C34.0231 65.7054 30.7783 66.3741 30.731 68.6483C30.6793 71.133 34.5659 72.1766 35.0089 72.2872C36.5521 72.6735 38.0387 72.8641 39.4565 72.8641C42.9049 72.8639 45.9391 71.7307 48.3643 69.538C48.2895 78.3963 48.659 87.1251 49.7225 89.7847C50.5935 91.9617 52.7217 97.2828 59.4439 97.2823C60.43 97.2823 61.5159 97.1677 62.7102 96.9117C69.7256 95.4074 72.772 92.3068 73.9506 85.471C74.5813 81.8178 75.6636 73.0936 76.1724 68.4142C77.2467 68.7493 78.6298 68.9027 80.1249 68.9024C83.2431 68.9024 86.8411 68.24 89.0976 67.1926C91.6323 66.0155 96.2066 63.1266 95.3771 60.617ZM78.6703 28.9955C78.647 30.377 78.4569 31.6311 78.2554 32.9403C78.0386 34.3483 77.8142 35.804 77.7577 37.5712C77.702 39.2909 77.9168 41.0789 78.1246 42.8077C78.5443 46.3 78.9749 49.8955 77.3076 53.4433C77.0485 52.9831 76.7984 52.481 76.569 51.9249C76.3619 51.4226 75.912 50.6157 75.2892 49.4989C72.8651 45.152 67.1889 34.9727 70.0947 30.8189C70.96 29.5822 73.1565 28.3113 78.6703 28.9955ZM71.987 5.59154C80.068 5.77002 86.4602 8.7931 90.9862 14.5763C94.4574 19.0123 90.635 39.1968 79.5695 56.6099C79.4602 56.4711 79.3489 56.3309 79.2338 56.1871C79.1879 56.1295 79.1411 56.0711 79.0938 56.012C81.9532 51.2896 81.394 46.6173 80.8964 42.4747C80.6919 40.7747 80.4989 39.169 80.5479 37.661C80.5988 36.062 80.8102 34.6912 81.0144 33.3654C81.2659 31.7315 81.5214 30.0411 81.4509 28.0482C81.5035 27.8393 81.5248 27.5922 81.4972 27.2991C81.3172 25.3879 79.1355 19.6689 74.6883 14.4919C72.256 11.6608 68.7084 8.49212 63.8649 6.35498C65.9483 5.9232 68.7973 5.52054 71.987 5.59154ZM26.768 66.5839C24.5333 69.2708 22.9898 68.756 22.4823 68.5869C19.1753 67.4837 15.3384 60.4945 11.9554 49.4111C9.02818 39.8209 7.31744 30.1775 7.18217 27.4733C6.75466 18.9212 8.82775 12.9608 13.3441 9.75787C20.6941 4.54547 32.7784 7.6653 37.634 9.24772C37.5641 9.31647 37.4916 9.38097 37.4224 9.45084C29.4545 17.498 29.6435 31.2466 29.663 32.0869C29.6623 32.4112 29.6894 32.8703 29.7268 33.5018C29.8639 35.8141 30.119 40.1179 29.4375 44.9919C28.804 49.521 30.2 53.9541 33.2672 57.1543C33.5848 57.4855 33.9162 57.7966 34.2587 58.0893C32.8933 59.5515 29.9262 62.7846 26.768 66.5839ZM35.2828 55.2228C32.8106 52.6436 31.688 49.0557 32.2021 45.3784C32.9219 40.2296 32.6561 35.7455 32.5134 33.3365C32.4935 32.9995 32.4758 32.7041 32.4653 32.471C33.6294 31.439 39.0236 28.5485 42.8704 29.43C44.6261 29.8322 45.6955 31.0274 46.1403 33.0837C48.442 43.7286 46.445 48.1655 44.8405 51.7307C44.5097 52.4653 44.1973 53.1595 43.9303 53.878L43.7236 54.4331C43.2 55.8371 42.7129 57.1422 42.4111 58.3818C39.7833 58.3737 37.2267 57.2513 35.2828 55.2228ZM35.6861 69.579C34.9189 69.3873 34.2287 69.0543 33.8238 68.7781C34.1619 68.6189 34.7639 68.4026 35.8077 68.1876C40.8598 67.1474 41.6398 66.4135 43.3436 64.2501C43.7344 63.7543 44.1771 63.192 44.7903 62.5071L44.791 62.5062C45.7044 61.4837 46.1221 61.657 46.8797 61.9712C47.4938 62.2254 48.0917 62.9949 48.3343 63.8419C48.4489 64.2419 48.5779 65.0013 48.1562 65.5918C44.597 70.5751 39.4108 70.5111 35.6861 69.579ZM62.125 94.1822C55.9447 95.5064 53.7565 92.353 52.3145 88.7481C51.3838 86.4206 50.9265 75.9257 51.251 64.3361C51.2552 64.1818 51.2333 64.0329 51.1907 63.8929C51.1538 63.6226 51.0969 63.3492 51.0181 63.074C50.5352 61.3876 49.3593 59.977 47.9484 59.3922C47.3879 59.16 46.3588 58.7338 45.1224 59.05C45.3862 57.9637 45.8435 56.7371 46.3391 55.4087L46.5472 54.8497C46.7814 54.2197 47.075 53.5671 47.3859 52.8765C49.065 49.1459 51.3647 44.0365 48.8688 32.4936C47.9339 28.1702 44.812 26.0591 40.0793 26.5493C37.2419 26.8429 34.6463 27.9877 33.3517 28.6441C33.0733 28.7852 32.8187 28.9214 32.5808 29.0542C32.9421 24.6979 34.3075 16.5572 39.4144 11.4066C42.6296 8.16381 46.912 6.56235 52.1295 6.64857C62.4099 6.81698 69.0023 12.0928 72.7227 16.4891C75.9285 20.2776 77.6646 24.0937 78.3575 26.1518C73.1473 25.6222 69.6038 26.6508 67.8073 29.2188C63.8994 34.8049 69.9453 45.6476 72.851 50.8585C73.3838 51.8136 73.8438 52.6389 73.9885 52.9896C74.9347 55.2828 76.1597 56.8137 77.0541 57.9314C77.3282 58.2738 77.5943 58.606 77.7965 58.896C76.2186 59.351 73.384 60.402 73.6423 65.6561C73.434 68.2926 71.9523 80.6358 71.1999 84.9967C70.2064 90.758 68.0863 92.9041 62.125 94.1822ZM87.9221 64.6606C86.3086 65.4097 83.6082 65.9716 81.0428 66.0921C78.2095 66.2249 76.7672 65.7748 76.4279 65.498C76.2685 62.2238 77.4874 61.8817 78.7772 61.5195C78.9798 61.4624 79.1776 61.4071 79.3684 61.3404C79.4871 61.4369 79.617 61.5327 79.7592 61.6266C82.0365 63.1297 86.0985 63.2919 91.8327 62.1083C91.8537 62.1038 91.8748 62.0998 91.8956 62.0955C91.1223 62.8187 89.7988 63.7892 87.9221 64.6606Z" fill="white"/>
</svg>
