<svg width="116" height="100" viewBox="0 0 116 100" fill="none" xmlns="http://www.w3.org/2000/svg">
<path fill-rule="evenodd" clip-rule="evenodd" d="M91.6415 31.3604C93.8289 22.7876 96.5785 6.8903 86.8855 1.50061C77.2378 -3.86558 64.6831 6.41703 58.0538 12.5891C51.4437 6.47853 38.5364 -3.76012 28.8516 1.64669C19.2077 7.03088 22.1817 22.6646 24.4176 31.2912C15.4215 33.7554 0 39.0631 0 49.9073C0 60.7208 15.4054 66.4954 24.3483 68.9573C22.1041 77.6315 19.279 93.0419 28.9353 98.4142C38.6562 103.82 51.5233 93.825 58.2142 87.5854C64.8861 93.7938 77.3202 103.854 86.9698 98.4669C96.6496 93.0627 94.1286 77.3785 91.8925 68.7019C100.562 66.2346 116 60.5858 116 49.9073C116 39.1673 100.496 33.8165 91.6415 31.3604ZM90.5426 64.1038C89.0745 59.6215 87.0928 54.855 84.6688 49.9311C86.9826 45.1235 88.8873 40.4185 90.3145 35.965C96.8055 37.78 111.045 41.9281 111.045 49.9073C111.045 57.9615 97.3805 62.1488 90.5426 64.1038ZM84.4867 94.3308C77.2869 98.35 66.5921 88.7292 61.6648 84.1573C64.9337 80.7092 68.2003 76.7008 71.3883 72.2496C76.9965 71.77 82.2943 70.9854 87.099 69.9142C88.6727 76.0515 91.7181 90.2934 84.4867 94.3308ZM31.4113 94.2735C24.2109 90.2692 27.502 76.5177 29.153 70.1281C33.9042 71.1419 39.1639 71.8712 44.7853 72.3108C47.9942 76.6662 51.3555 80.6696 54.7427 84.1758C50.5578 88.08 38.6454 98.2962 31.4113 94.2735ZM4.95509 49.9073C4.95509 41.8231 19.1093 37.705 25.7483 35.8946C27.2001 40.4481 29.1042 45.2092 31.4021 50.0238C29.0744 54.91 27.1431 59.7465 25.678 64.3538C19.3476 62.6061 4.95509 57.9965 4.95509 49.9073ZM31.3343 5.78284C38.5642 1.74676 49.7822 11.5763 54.5815 16.0005C51.2117 19.4905 47.8813 23.4638 44.6998 27.7942C39.2443 28.2819 34.0218 29.065 29.2207 30.1142C27.4195 23.1566 24.1122 9.81457 31.3343 5.78284ZM74.9333 32.9888C78.6345 33.4392 82.1806 34.0385 85.5102 34.7715C84.5106 37.8615 83.2648 41.0927 81.7974 44.405C79.6703 40.5127 77.3871 36.6985 74.9333 32.9888ZM58.0553 19.4158C60.3409 21.8037 62.6299 24.4704 64.8819 27.3635C60.3142 27.155 55.7392 27.1542 51.1715 27.3604C53.4253 24.4941 55.7341 21.8315 58.0553 19.4158ZM34.2451 44.4015C32.8021 41.1008 31.5674 37.8554 30.5591 34.7212C33.8688 34.0069 37.3984 33.4231 41.0756 32.98C38.6149 36.6815 36.3355 40.4942 34.2451 44.4015ZM41.1812 67.1758C37.3825 66.7669 33.7995 66.2127 30.4908 65.5181C31.515 62.3288 32.7769 59.0135 34.2508 55.6415C36.3699 59.5896 38.6841 63.4392 41.1812 67.1758ZM58.1926 80.7365C55.8439 78.2923 53.5011 75.5888 51.2132 72.6812C55.8068 72.855 60.4093 72.8554 65.0025 72.6577C62.7436 75.6185 60.4627 78.3258 58.1926 80.7365ZM81.8446 55.47C83.3951 58.8785 84.702 62.1758 85.7402 65.3112C82.3766 66.0515 78.7454 66.6477 74.9194 67.0904C77.3913 63.3104 79.7109 59.4369 81.8446 55.47ZM68.6229 67.6696C61.5964 68.1538 54.5262 68.1485 47.4974 67.7092C43.5035 62.0827 39.9481 56.1654 36.8791 50.0223C39.9334 43.8919 43.4629 37.9862 47.4378 32.3685C54.4717 31.8558 61.5488 31.8542 68.5827 32.3715C72.5236 37.9888 76.0477 43.8792 79.1727 49.9542C76.0848 56.0815 72.5367 61.9992 68.6229 67.6696ZM84.4105 5.64076C91.6423 9.66361 88.4233 23.951 86.8434 30.1638C82.0309 29.0927 76.8048 28.2958 71.3334 27.8004C68.1457 23.4232 64.8432 19.443 61.5279 15.998C66.3887 11.4785 77.2487 1.65726 84.4105 5.64076Z" fill="#53C1DE"/>
</svg>
