<svg width="516" height="215" viewBox="0 0 516 215" fill="none" xmlns="http://www.w3.org/2000/svg">
<path fill-rule="evenodd" clip-rule="evenodd" d="M512.904 122.808H443.588C445.222 139.406 457.348 144.738 471.108 144.738C485.212 144.738 496.564 141.556 505.938 136.568V165.12C494.042 171.965 480.43 175.248 466.722 174.58C432.236 174.58 407.984 153.08 407.984 110.252C407.984 74.218 428.538 45.58 462.164 45.58C495.876 45.58 513.42 73.788 513.42 110.08C513.42 113.52 513.076 120.916 512.904 122.808ZM461.992 74.476C453.134 74.476 443.33 80.754 443.33 96.664H479.88C479.88 80.754 470.678 74.476 461.992 74.476ZM352.17 174.58C339.786 174.58 332.218 169.42 327.23 165.636L327.058 205.454L291.626 212.936V47.902H323.962L324.65 56.674C332.15 49.56 342.091 45.5899 352.428 45.58C377.368 45.58 400.76 67.94 400.76 109.22C400.76 154.198 377.54 174.58 352.17 174.58ZM344 76.97C335.83 76.97 330.756 79.894 327.058 83.936L327.23 136.568C330.67 140.352 335.658 143.276 344 143.276C357.072 143.276 365.844 129.086 365.844 109.994C365.844 91.504 356.9 76.97 344 76.97ZM242.864 47.902H278.382V172.086H242.864V47.902ZM242.864 7.482L278.382 0V28.896L242.864 36.464V7.568V7.482ZM205.712 87.892V172.086H170.28V47.902H202.1L203.132 58.394C211.732 43.172 229.534 46.268 234.264 47.902V80.496C229.792 79.034 214.57 76.798 205.712 87.892ZM132.182 128.484C132.182 149.382 154.542 142.932 159.014 141.04V169.936C154.284 172.516 145.77 174.58 134.16 174.58C129.321 174.721 124.504 173.876 120.002 172.097C115.5 170.318 111.407 167.642 107.972 164.231C104.537 160.82 101.831 156.746 100.02 152.256C98.2096 147.767 97.331 142.956 97.438 138.116L97.524 24.854L132.096 17.458V47.902H159.1V78.26H132.182V128.57V128.484ZM89.956 134.504C89.956 160.046 70.09 174.58 40.678 174.58C27.4797 174.57 14.4243 171.848 2.322 166.582V132.784C14.19 139.234 28.982 144.05 40.678 144.05C48.59 144.05 53.836 141.986 53.836 135.45C53.836 118.422 0 124.786 0 85.57C0 60.544 19.608 45.58 48.332 45.58C60.028 45.58 71.724 47.3 83.506 52.03V85.398C72.618 79.6677 60.547 76.5469 48.246 76.282C40.85 76.282 35.862 78.432 35.862 84.022C35.862 99.932 89.956 92.364 89.956 134.59V134.504Z" fill="#635BFF"/>
</svg>
