<svg width="167" height="100" viewBox="0 0 167 100" fill="none" xmlns="http://www.w3.org/2000/svg">
<path d="M83.5 0C61.2329 0 47.321 11.1074 41.75 33.3312C50.0974 22.2225 59.8421 18.0569 70.9724 20.8344C77.3275 22.4152 81.8691 27.0144 86.8987 32.111C95.0843 40.4018 104.559 50 125.25 50C147.516 50 161.429 38.8913 167 16.6623C158.651 27.7775 148.908 31.9431 137.776 29.1656C131.422 27.5835 126.886 22.9856 121.85 17.889C113.67 9.59816 104.198 0 83.5 0ZM41.75 50C19.4842 50 5.57102 61.1086 0 83.3377C8.34739 72.2225 18.0908 68.0569 29.2224 70.8344C35.5775 72.4165 40.1191 77.0144 45.1487 82.1111C53.3343 90.4018 62.809 100 83.5 100C105.766 100 119.679 88.8927 125.25 66.6688C116.901 77.7775 107.158 81.9431 96.0263 79.1656C89.6725 77.5848 85.1361 72.9856 80.1 67.889C71.9196 59.5982 62.4476 50 41.75 50Z" fill="#38BDF8"/>
</svg>
