<svg width="64" height="64" viewBox="0 0 64 64" fill="none" xmlns="http://www.w3.org/2000/svg">
<g id="Tailwind CSS">
<path id="Vector" d="M32 12.8008C23.4665 12.8008 18.135 17.0658 16 25.5993C19.199 21.3338 22.9335 19.7343 27.199 20.8008C29.6345 21.4078 31.375 23.1738 33.3025 25.1308C36.4395 28.3143 40.0705 31.9998 48 31.9998C56.533 31.9998 61.865 27.7343 64 19.1988C60.8005 23.4668 57.0665 25.0663 52.8005 23.9998C50.3655 23.3923 48.627 21.6268 46.697 19.6698C43.562 16.4863 39.932 12.8008 32 12.8008ZM16 31.9998C7.467 31.9998 2.135 36.2653 0 44.8008C3.199 40.5328 6.933 38.9333 11.199 39.9998C13.6345 40.6073 15.375 42.3728 17.3025 44.3298C20.4395 47.5133 24.0705 51.1988 32 51.1988C40.533 51.1988 45.865 46.9338 48 38.4003C44.8005 42.6658 41.0665 44.2653 36.8005 43.1988C34.3655 42.5918 32.627 40.8258 30.697 38.8688C27.562 35.6853 23.932 31.9998 16 31.9998Z" fill="#38BDF8"/>
</g>
</svg>
