<svg width="89" height="100" viewBox="0 0 89 100" fill="none" xmlns="http://www.w3.org/2000/svg">
<g clip-path="url(#clip0_5047_3883)">
<path d="M44.5 0L89 24.9971V75.0029L44.5 100L0 75.0029V24.9971L44.5 0Z" fill="white"/>
<path d="M81.0562 73.2785L45.9737 92.9885V77.6407L67.8327 65.696L81.0562 73.2785ZM83.4595 71.1202V29.9075L70.6269 37.273V63.7661L83.4595 71.1202ZM7.80948 73.2785L42.892 92.9885V77.6407L21.0215 65.696L7.80948 73.2785ZM5.40625 71.1202V29.9075L18.2388 37.273V63.7661L5.40625 71.1202ZM6.91258 27.2354L42.892 7.02295V21.8568L19.8371 34.4524L19.6531 34.5552L6.91258 27.2354ZM81.9531 27.2354L45.9737 7.02295V21.8568L69.0286 34.441L69.2126 34.5438L81.9531 27.2354Z" fill="#8ED6FB"/>
<path d="M42.8919 74.1464L21.3203 62.3616V39.0317L42.8919 51.3989V74.1464ZM45.9735 74.1464L67.5451 62.373V39.0317L45.9735 51.3989V74.1464ZM22.7806 36.3367L44.4327 24.5176L66.0848 36.3367L44.4327 48.7496L22.7806 36.3367Z" fill="#1C78C0"/>
</g>
<defs>
<clipPath id="clip0_5047_3883">
<rect width="89" height="100" fill="white"/>
</clipPath>
</defs>
</svg>
