<svg width="54" height="60" viewBox="0 0 54 60" fill="none" xmlns="http://www.w3.org/2000/svg">
<g id="Frame" clip-path="url(#clip0_437_938)">
<path id="Vector" d="M27.0159 0L53.5319 14.9983V45.0017L27.0159 60L0.5 45.0017V14.9983L27.0159 0Z" fill="white"/>
<path id="Vector_2" d="M48.7978 43.9672L27.8934 55.7932V46.5845L40.9184 39.4177L48.7978 43.9672ZM50.2298 42.6722V17.9446L42.5833 22.3639V38.2598L50.2298 42.6722ZM5.1527 43.9672L26.0571 55.7932V46.5845L13.0253 39.4177L5.1527 43.9672ZM3.7207 42.6722V17.9446L11.3672 22.3639V38.2598L3.7207 42.6722ZM4.61827 16.3413L26.0571 4.21387V13.1142L12.3195 20.6716L12.2099 20.7332L4.61827 16.3413ZM49.3322 16.3413L27.8934 4.21387V13.1142L41.6309 20.6647L41.7406 20.7264L49.3322 16.3413Z" fill="#8ED6FB"/>
<path id="Vector_3" d="M26.0568 44.4878L13.2031 37.4169V23.4189L26.0568 30.8393V44.4878ZM27.8931 44.4878L40.7468 37.4237V23.4189L27.8931 30.8393V44.4878ZM14.0733 21.8019L26.975 14.7104L39.8766 21.8019L26.975 29.2497L14.0733 21.8019Z" fill="#1C78C0"/>
</g>
<defs>
<clipPath id="clip0_437_938">
<rect width="53.0319" height="60" fill="white" transform="translate(0.5)"/>
</clipPath>
</defs>
</svg>
